<svg id="Layer_1" data-name="Layer 1" xmlns="http://www.w3.org/2000/svg" xmlns:xlink="http://www.w3.org/1999/xlink" viewBox="0 0 2.29 1.01"><defs><style>.cls-1{fill:url(#linear-gradient);}.cls-2{fill:#fff;}.cls-3{fill:url(#linear-gradient-2);}.cls-4{fill:url(#linear-gradient-3);}.cls-5{fill:url(#linear-gradient-4);}.cls-6{fill:url(#linear-gradient-5);}.cls-7,.cls-8,.cls-9{isolation:isolate;}.cls-8,.cls-9{font-size:0.27px;fill:#bc2154;font-family:Dubai-Bold, Dubai;font-weight:700;}.cls-9{letter-spacing:-0.01em;}</style><linearGradient id="linear-gradient" x1="2.44" y1="-2.4" x2="2.82" y2="-3.34" gradientTransform="matrix(1, 0, 0, -1, -2.18, -2.52)" gradientUnits="userSpaceOnUse"><stop offset="0" stop-color="#cb296f"/><stop offset="1" stop-color="#4d286e"/></linearGradient><linearGradient id="linear-gradient-2" x1="2.49" y1="-2.51" x2="2.8" y2="-3.28" gradientTransform="matrix(1, 0, 0, -1, -2.18, -2.52)" gradientUnits="userSpaceOnUse"><stop offset="0" stop-color="#68cef2"/><stop offset="1" stop-color="#4a5ba9"/></linearGradient><linearGradient id="linear-gradient-3" x1="2.63" y1="-2.76" x2="2.67" y2="-3.13" gradientTransform="matrix(1, 0, 0, -1, -2.18, -2.52)" gradientUnits="userSpaceOnUse"><stop offset="0" stop-color="#f7ed4d"/><stop offset="1" stop-color="#da3e67"/></linearGradient><linearGradient id="linear-gradient-4" x1="2.62" y1="-2.94" x2="2.71" y2="-3.39" xlink:href="#linear-gradient-3"/><linearGradient id="linear-gradient-5" x1="2.7" y1="-3.03" x2="2.6" y2="-3.16" xlink:href="#linear-gradient"/></defs><path class="cls-1" d="M.9.25A.08.08,0,0,0,.85.18L.5,0H.43L.07.18A.08.08,0,0,0,0,.25.71.71,0,0,0,.43,1,.08.08,0,0,0,.5,1,.72.72,0,0,0,.9.25Z" transform="translate(-0.02 0)"/><path class="cls-2" d="M.35.08h0s0,0,0,0L.44,0h0s0,0,0,0h0L.36.08Z" transform="translate(-0.02 0)"/><path class="cls-2" d="M.05.36s0,0,0,0V.25a.07.07,0,0,1,0,0L.32.08h0L.09.21a.05.05,0,0,0,0,0V.36Z" transform="translate(-0.02 0)"/><path class="cls-3" d="M.82.27a0,0,0,0,0,0,0L.47.09h0L.12.25s0,0,0,0A.7.7,0,0,0,.24.75.68.68,0,0,0,.45.92h0A.58.58,0,0,0,.68.75.7.7,0,0,0,.82.27Z" transform="translate(-0.02 0)"/><path class="cls-4" d="M.36.48h0V.34A.11.11,0,0,1,.42.24H.49A.1.1,0,0,1,.6.32h0V.45h0V.33s0,0,0,0a.07.07,0,0,0-.06,0H.42A.09.09,0,0,0,.36.34Z" transform="translate(-0.02 0)"/><path class="cls-5" d="M.32.45l.29,0a0,0,0,0,1,0,0h0V.68a0,0,0,0,1,0,0H.33a0,0,0,0,1,0,0V.47Z" transform="translate(-0.02 0)"/><path class="cls-6" d="M.51.63V.58h0A0,0,0,0,0,.5.5h0s0,0,0,0,0,0,0,0V.63s0,0,0,0H.5a0,0,0,0,0,0,0Z" transform="translate(-0.02 0)"/><g class="cls-7"><text class="cls-8" transform="translate(1 0.38)">Ge</text><text class="cls-9" transform="translate(1.31 0.38)">s</text><text class="cls-8" transform="translate(1.43 0.38)">tion de </text><text class="cls-8" transform="translate(1 0.7)">la Sécuri</text><text class="cls-9" transform="translate(1.99 0.7)">t</text><text class="cls-8" transform="translate(2.09 0.7)">é</text></g></svg>