<svg id="Layer_1" data-name="Layer 1" xmlns="http://www.w3.org/2000/svg" xmlns:xlink="http://www.w3.org/1999/xlink" viewBox="0 0 57.44 25.29"><defs><style>.cls-1{fill:url(#linear-gradient);}.cls-2{fill:#fff;}.cls-3{fill:url(#linear-gradient-2);}.cls-4{fill:url(#linear-gradient-3);}.cls-5{fill:url(#linear-gradient-4);}.cls-6{fill:url(#linear-gradient-5);}.cls-7{font-size:6.77px;fill:#bc1f53;font-family:Dubai-Bold, Dubai;font-weight:700;}.cls-8{letter-spacing:-0.01em;}.cls-9{letter-spacing:0em;}.cls-10{letter-spacing:-0.01em;}.cls-11{letter-spacing:0em;}</style><linearGradient id="linear-gradient" x1="8.28" y1="3.46" x2="17.89" y2="27.05" gradientUnits="userSpaceOnUse"><stop offset="0" stop-color="#cb266e"/><stop offset="1" stop-color="#4c286e"/></linearGradient><linearGradient id="linear-gradient-2" x1="9.39" y1="6.31" x2="17.22" y2="25.52" gradientUnits="userSpaceOnUse"><stop offset="0" stop-color="#66cdf3"/><stop offset="1" stop-color="#4a5aa8"/></linearGradient><linearGradient id="linear-gradient-3" x1="13.03" y1="12.49" x2="13.93" y2="21.96" gradientUnits="userSpaceOnUse"><stop offset="0" stop-color="#f9ee4a"/><stop offset="1" stop-color="#da3d66"/></linearGradient><linearGradient id="linear-gradient-4" x1="12.77" y1="17.16" x2="15.09" y2="28.27" xlink:href="#linear-gradient-3"/><linearGradient id="linear-gradient-5" x1="14.73" y1="19.4" x2="12.22" y2="22.7" xlink:href="#linear-gradient"/></defs><path class="cls-1" d="M24.34,12.74A2.12,2.12,0,0,0,23.14,11L14.2,6.73a2.08,2.08,0,0,0-1.82,0L3.44,11a2.12,2.12,0,0,0-1.2,1.77c-.84,13,7.48,17.7,10.2,18.9a2.18,2.18,0,0,0,1.7,0C16.86,30.44,25.18,25.71,24.34,12.74Z" transform="translate(-2.18 -6.52)"/><path class="cls-2" d="M10.58,8.6a.21.21,0,0,1-.19-.12.22.22,0,0,1,.1-.29l2.12-1a.21.21,0,0,1,.18.39l-2.11,1A.18.18,0,0,1,10.58,8.6Z" transform="translate(-2.18 -6.52)"/><path class="cls-2" d="M2.92,15.61a.22.22,0,0,1-.21-.21,25.86,25.86,0,0,1,0-2.63,1.61,1.61,0,0,1,.91-1.33l6-2.86A.21.21,0,0,1,9.86,9l-6,2.86a1.16,1.16,0,0,0-.66,1,24.89,24.89,0,0,0,0,2.58.23.23,0,0,1-.21.23Z" transform="translate(-2.18 -6.52)"/><path class="cls-3" d="M22.18,13.25a.51.51,0,0,0-.3-.45l-8.36-4a.53.53,0,0,0-.46,0l-8.36,4a.53.53,0,0,0-.3.45c-.25,4.84.87,8.88,3.32,12a14.9,14.9,0,0,0,5.35,4.27.56.56,0,0,0,.44,0,14.9,14.9,0,0,0,5.35-4.27C21.31,22.13,22.43,18.09,22.18,13.25Z" transform="translate(-2.18 -6.52)"/><path class="cls-4" d="M10.82,18.45H10V15.13a2.59,2.59,0,0,1,2.28-2.57l1.7-.21a2.6,2.6,0,0,1,2.9,2.57v2.9H16v-2.9a1.73,1.73,0,0,0-.59-1.31,1.75,1.75,0,0,0-1.37-.43l-1.7.21a1.74,1.74,0,0,0-1.54,1.74Z" transform="translate(-2.18 -6.52)"/><path class="cls-5" d="M9.74,17.7l7.3-.4a.52.52,0,0,1,.55.51V23.6a.52.52,0,0,1-.52.52H9.94a.52.52,0,0,1-.52-.5l-.17-5.38A.52.52,0,0,1,9.74,17.7Z" transform="translate(-2.18 -6.52)"/><path class="cls-6" d="M14.61,22.46l-.44-1.27a.43.43,0,0,1,.1-.44,1.21,1.21,0,0,0-.81-2.05,1.2,1.2,0,0,0-.81,2.14.44.44,0,0,1,.14.48l-.4,1.14a.43.43,0,0,0,.41.57h1.41A.43.43,0,0,0,14.61,22.46Z" transform="translate(-2.18 -6.52)"/><text class="cls-7" transform="translate(25.21 9.48)">Ge<tspan class="cls-8" x="7.72" y="0">s</tspan><tspan class="cls-9" x="10.61" y="0">tion de </tspan><tspan x="0" y="8.12">la Sécuri</tspan><tspan class="cls-10" x="24.76" y="8.12">t</tspan><tspan class="cls-11" x="27.2" y="8.12">é</tspan></text></svg>