<?xml version="1.0" encoding="utf-8" standalone="no"?>
<!DOCTYPE svg PUBLIC "-//W3C//DTD SVG 1.1//EN"
  "http://www.w3.org/Graphics/SVG/1.1/DTD/svg11.dtd">
<svg height="720pt" version="1.1" viewBox="0 0 1080 720" width="1080pt" xmlns="http://www.w3.org/2000/svg" xmlns:xlink="http://www.w3.org/1999/xlink">
 <metadata>
  <rdf:RDF xmlns:cc="http://creativecommons.org/ns#" xmlns:dc="http://purl.org/dc/elements/1.1/" xmlns:rdf="http://www.w3.org/1999/02/22-rdf-syntax-ns#">
   <cc:Work>
    <dc:type rdf:resource="http://purl.org/dc/dcmitype/StillImage"/>
    <dc:date>2021-06-05T20:32:58.821178</dc:date>
    <dc:format>image/svg+xml</dc:format>
    <dc:creator>
     <cc:Agent>
      <dc:title>Matplotlib v3.4.2, https://matplotlib.org/</dc:title>
     </cc:Agent>
    </dc:creator>
   </cc:Work>
  </rdf:RDF>
 </metadata>
 <defs>
  <style type="text/css">*{stroke-linecap:butt;stroke-linejoin:round;}</style>
 </defs>
 <g id="figure_1">
  <g id="patch_1">
   <path d="M 0 720 
L 1080 720 
L 1080 0 
L 0 0 
z
" style="fill:#ffffff;"/>
  </g>
  <g id="axes_1">
   <g id="patch_2">
    <path d="M 356.558824 363.6 
C 356.558824 363.6 356.558824 363.6 356.558824 363.6 
L 258.088235 363.6 
L 356.558824 363.6 
z
" style="fill:#1f77b4;"/>
   </g>
   <g id="patch_3">
    <path d="M 356.558824 363.6 
C 356.558824 363.6 356.558824 363.6 356.558824 363.6 
L 258.088235 363.6 
L 356.558824 363.6 
z
" style="fill:#ff7f0e;"/>
   </g>
   <g id="patch_4">
    <path d="M 356.558824 363.6 
C 356.558824 363.6 356.558824 363.6 356.558824 363.6 
L 258.088235 363.6 
L 356.558824 363.6 
z
" style="fill:#2ca02c;"/>
   </g>
   <g id="patch_5">
    <path d="M 356.558824 363.6 
C 356.558824 363.6 356.558824 363.6 356.558824 363.6 
L 258.088235 363.6 
L 356.558824 363.6 
z
" style="fill:#d62728;"/>
   </g>
   <g id="patch_6">
    <path d="M 356.558824 363.6 
C 356.558824 363.6 356.558824 363.6 356.558824 363.6 
L 258.088235 363.6 
L 356.558824 363.6 
z
" style="fill:#9467bd;"/>
   </g>
   <g id="patch_7">
    <path d="M 356.558824 363.6 
C 356.558824 344.076666 350.752614 324.987434 339.881823 308.770576 
C 329.011033 292.553718 313.559086 279.930399 295.499663 272.512999 
C 277.440241 265.095598 257.576447 263.213968 238.445488 267.10845 
C 219.314529 271.002932 201.767161 280.500337 188.044713 294.387561 
L 258.088235 363.6 
L 356.558824 363.6 
z
" style="fill:#8c564b;"/>
   </g>
   <g id="patch_8">
    <path d="M 188.044713 294.387561 
C 188.044713 294.387561 188.044713 294.387561 188.044713 294.387561 
L 258.088235 363.6 
L 188.044713 294.387561 
z
" style="fill:#e377c2;"/>
   </g>
   <g id="patch_9">
    <path d="M 188.044713 294.387561 
C 188.044713 294.387561 188.044713 294.387561 188.044713 294.387561 
L 258.088235 363.6 
L 188.044713 294.387561 
z
" style="fill:#7f7f7f;"/>
   </g>
   <g id="patch_10">
    <path d="M 188.044713 294.387561 
C 188.044713 294.387561 188.044713 294.387561 188.044713 294.387561 
L 258.088235 363.6 
L 188.044713 294.387561 
z
" style="fill:#bcbd22;"/>
   </g>
   <g id="patch_11">
    <path d="M 188.044713 294.387561 
C 188.044713 294.387561 188.044713 294.387561 188.044713 294.387561 
L 258.088235 363.6 
L 188.044713 294.387561 
z
" style="fill:#17becf;"/>
   </g>
   <g id="patch_12">
    <path d="M 188.044713 294.387561 
C 179.444298 303.091247 172.54104 313.322218 167.689301 324.55529 
C 162.837562 335.788362 160.121805 347.827981 159.681439 360.056119 
L 258.088235 363.6 
L 188.044713 294.387561 
z
" style="fill:#1f77b4;"/>
   </g>
   <g id="patch_13">
    <path d="M 159.681439 360.056119 
C 159.092529 376.409003 162.588998 392.653675 169.853595 407.316187 
C 177.118192 421.978699 187.92435 434.601758 201.291581 444.04002 
L 258.088235 363.6 
L 159.681439 360.056119 
z
" style="fill:#ff7f0e;"/>
   </g>
   <g id="patch_14">
    <path d="M 201.291581 444.04002 
C 201.291581 444.04002 201.291581 444.04002 201.291581 444.04002 
L 258.088235 363.6 
L 201.291581 444.04002 
z
" style="fill:#2ca02c;"/>
   </g>
   <g id="patch_15">
    <path d="M 201.291581 444.04002 
C 201.291581 444.04002 201.291581 444.04002 201.291581 444.04002 
L 258.088235 363.6 
L 201.291581 444.04002 
z
" style="fill:#d62728;"/>
   </g>
   <g id="patch_16">
    <path d="M 201.291581 444.04002 
C 203.333988 445.482112 205.430578 446.845894 207.576791 448.128402 
C 209.723005 449.41091 211.917285 450.611213 214.154861 451.726701 
L 258.088235 363.6 
L 201.291581 444.04002 
z
" style="fill:#9467bd;"/>
   </g>
   <g id="patch_17">
    <path d="M 214.154861 451.726701 
C 214.210515 451.754446 214.266196 451.782138 214.321903 451.809778 
C 214.377609 451.837417 214.433342 451.865004 214.489102 451.892538 
L 258.088235 363.6 
L 214.154861 451.726701 
z
" style="fill:#8c564b;"/>
   </g>
   <g id="patch_18">
    <path d="M 214.489102 451.892538 
C 214.489102 451.892538 214.489102 451.892538 214.489102 451.892538 
L 258.088235 363.6 
L 214.489102 451.892538 
z
" style="fill:#e377c2;"/>
   </g>
   <g id="patch_19">
    <path d="M 214.489102 451.892538 
C 214.845961 452.068756 215.203885 452.242809 215.562855 452.414688 
C 215.921825 452.586566 216.281833 452.756267 216.64286 452.92378 
L 258.088235 363.6 
L 214.489102 451.892538 
z
" style="fill:#7f7f7f;"/>
   </g>
   <g id="patch_20">
    <path d="M 216.64286 452.92378 
C 231.646743 459.885437 248.165595 462.955821 264.668908 461.850453 
C 281.17222 460.745085 297.13406 455.499192 311.075527 446.598817 
C 325.016994 437.698443 336.493796 425.427226 344.442582 410.922125 
C 352.391368 396.417024 356.558823 380.14029 356.558824 363.600001 
L 258.088235 363.6 
L 216.64286 452.92378 
z
" style="fill:#bcbd22;"/>
   </g>
   <g id="patch_21">
    <path d="M 356.558824 363.600001 
C 356.558824 363.600001 356.558824 363.600001 356.558824 363.600001 
L 258.088235 363.6 
L 356.558824 363.600001 
z
" style="fill:#17becf;"/>
   </g>
   <g id="patch_22">
    <path d="M 356.558824 363.600001 
C 356.558824 363.600001 356.558824 363.600001 356.558824 363.600001 
L 258.088235 363.6 
L 356.558824 363.600001 
z
" style="fill:#1f77b4;"/>
   </g>
   <g id="patch_23">
    <path d="M 356.558824 363.600001 
C 356.558824 363.600001 356.558824 363.600001 356.558824 363.600001 
L 258.088235 363.6 
L 356.558824 363.600001 
z
" style="fill:#ff7f0e;"/>
   </g>
   <g id="patch_24">
    <path d="M 356.558824 363.600001 
C 356.558824 363.600001 356.558824 363.600001 356.558824 363.600001 
L 258.088235 363.6 
L 356.558824 363.600001 
z
" style="fill:#2ca02c;"/>
   </g>
   <g id="matplotlib.axis_1"/>
   <g id="matplotlib.axis_2"/>
   <g id="text_1">
    <!-- ICMP -->
    <g transform="translate(243.33386 234.511765)scale(0.12 -0.12)">
     <defs>
      <path d="M 628 4666 
L 1259 4666 
L 1259 0 
L 628 0 
L 628 4666 
z
" id="DejaVuSans-49" transform="scale(0.015625)"/>
      <path d="M 4122 4306 
L 4122 3641 
Q 3803 3938 3442 4084 
Q 3081 4231 2675 4231 
Q 1875 4231 1450 3742 
Q 1025 3253 1025 2328 
Q 1025 1406 1450 917 
Q 1875 428 2675 428 
Q 3081 428 3442 575 
Q 3803 722 4122 1019 
L 4122 359 
Q 3791 134 3420 21 
Q 3050 -91 2638 -91 
Q 1578 -91 968 557 
Q 359 1206 359 2328 
Q 359 3453 968 4101 
Q 1578 4750 2638 4750 
Q 3056 4750 3426 4639 
Q 3797 4528 4122 4306 
z
" id="DejaVuSans-43" transform="scale(0.015625)"/>
      <path d="M 628 4666 
L 1569 4666 
L 2759 1491 
L 3956 4666 
L 4897 4666 
L 4897 0 
L 4281 0 
L 4281 4097 
L 3078 897 
L 2444 897 
L 1241 4097 
L 1241 0 
L 628 0 
L 628 4666 
z
" id="DejaVuSans-4d" transform="scale(0.015625)"/>
      <path d="M 1259 4147 
L 1259 2394 
L 2053 2394 
Q 2494 2394 2734 2622 
Q 2975 2850 2975 3272 
Q 2975 3691 2734 3919 
Q 2494 4147 2053 4147 
L 1259 4147 
z
M 628 4666 
L 2053 4666 
Q 2838 4666 3239 4311 
Q 3641 3956 3641 3272 
Q 3641 2581 3239 2228 
Q 2838 1875 2053 1875 
L 1259 1875 
L 1259 0 
L 628 0 
L 628 4666 
z
" id="DejaVuSans-50" transform="scale(0.015625)"/>
     </defs>
     <use xlink:href="#DejaVuSans-49"/>
     <use x="29.492188" xlink:href="#DejaVuSans-43"/>
     <use x="99.316406" xlink:href="#DejaVuSans-4d"/>
     <use x="185.595703" xlink:href="#DejaVuSans-50"/>
    </g>
   </g>
   <g id="legend_1">
    <g id="patch_25">
     <path d="M 370.176471 253.511765 
L 374.176471 253.511765 
Q 376.176471 253.511765 376.176471 251.511765 
L 376.176471 247.511765 
Q 376.176471 245.511765 374.176471 245.511765 
L 370.176471 245.511765 
Q 368.176471 245.511765 368.176471 247.511765 
L 368.176471 251.511765 
Q 368.176471 253.511765 370.176471 253.511765 
z
" style="fill:#ffffff;opacity:0.8;stroke:#cccccc;stroke-linejoin:miter;"/>
    </g>
   </g>
  </g>
  <g id="axes_2">
   <g id="patch_26">
    <path d="M 651.970588 363.6 
C 651.970588 362.639988 651.956549 361.680026 651.928476 360.720425 
C 651.900402 359.760823 651.858297 358.801683 651.802173 357.843312 
L 553.5 363.6 
L 651.970588 363.6 
z
" style="fill:#1f77b4;"/>
   </g>
   <g id="patch_27">
    <path d="M 651.802173 357.843312 
C 651.800412 357.813238 651.798637 357.783165 651.796848 357.753093 
C 651.79506 357.723021 651.793257 357.692949 651.791441 357.662879 
L 553.5 363.6 
L 651.802173 357.843312 
z
" style="fill:#ff7f0e;"/>
   </g>
   <g id="patch_28">
    <path d="M 651.791441 357.662879 
C 651.790956 357.65486 651.790471 357.646841 651.789985 357.638822 
C 651.789498 357.630804 651.789011 357.622785 651.788523 357.614767 
L 553.5 363.6 
L 651.791441 357.662879 
z
" style="fill:#2ca02c;"/>
   </g>
   <g id="patch_29">
    <path d="M 651.788523 357.614767 
C 651.785288 357.561643 651.78201 357.508523 651.778689 357.455405 
C 651.775368 357.402287 651.772004 357.349172 651.768597 357.29606 
L 553.5 363.6 
L 651.788523 357.614767 
z
" style="fill:#d62728;"/>
   </g>
   <g id="patch_30">
    <path d="M 651.768597 357.29606 
C 651.76789 357.285037 651.767181 357.274013 651.76647 357.26299 
C 651.765759 357.251967 651.765046 357.240944 651.764332 357.229922 
L 553.5 363.6 
L 651.768597 357.29606 
z
" style="fill:#9467bd;"/>
   </g>
   <g id="patch_31">
    <path d="M 651.764332 357.229922 
C 651.73302 356.746919 651.698149 356.264153 651.659719 355.781665 
C 651.621289 355.299176 651.579302 354.816978 651.533762 354.335108 
L 553.5 363.6 
L 651.764332 357.229922 
z
" style="fill:#8c564b;"/>
   </g>
   <g id="patch_32">
    <path d="M 651.533762 354.335108 
C 651.532062 354.317113 651.530356 354.299119 651.528645 354.281124 
C 651.526935 354.26313 651.525219 354.245137 651.523499 354.227144 
L 553.5 363.6 
L 651.533762 354.335108 
z
" style="fill:#e377c2;"/>
   </g>
   <g id="patch_33">
    <path d="M 651.523499 354.227144 
C 651.522639 354.218147 651.521777 354.209151 651.520914 354.200154 
C 651.520052 354.191158 651.519188 354.182162 651.518322 354.173166 
L 553.5 363.6 
L 651.523499 354.227144 
z
" style="fill:#7f7f7f;"/>
   </g>
   <g id="patch_34">
    <path d="M 651.518322 354.173166 
C 651.51765 354.166169 651.516976 354.159172 651.516301 354.152175 
C 651.515627 354.145178 651.514952 354.138181 651.514276 354.131185 
L 553.5 363.6 
L 651.518322 354.173166 
z
" style="fill:#bcbd22;"/>
   </g>
   <g id="patch_35">
    <path d="M 651.514276 354.131185 
C 649.508124 333.364965 640.953364 313.764005 627.091236 298.172279 
C 613.229108 282.580552 594.764122 271.790472 574.375429 267.367608 
C 553.986736 262.944745 532.710542 265.113881 513.633888 273.560287 
C 494.557234 282.006694 478.649644 296.301103 468.219208 314.369488 
L 553.5 363.6 
L 651.514276 354.131185 
z
" style="fill:#17becf;"/>
   </g>
   <g id="patch_36">
    <path d="M 468.219208 314.369488 
C 468.086167 314.599952 467.954061 314.830954 467.822893 315.062488 
C 467.691725 315.294023 467.561495 315.526088 467.432209 315.758679 
L 553.5 363.6 
L 468.219208 314.369488 
z
" style="fill:#1f77b4;"/>
   </g>
   <g id="patch_37">
    <path d="M 467.432209 315.758679 
C 460.871891 327.560862 456.808737 340.587272 455.495919 354.026238 
C 454.183102 367.465205 455.648467 381.031681 459.800708 393.880346 
C 463.952949 406.729012 470.703995 418.58734 479.633191 428.716444 
C 488.562388 438.845549 499.480343 447.030586 511.706763 452.761551 
C 523.933183 458.492515 537.208741 461.64785 550.706243 462.030949 
C 564.203744 462.414047 577.636901 460.016783 590.168699 454.988529 
C 602.700497 449.960275 614.065132 442.407683 623.554478 432.80135 
C 633.043824 423.195018 640.456607 411.7387 645.330942 399.146236 
L 553.5 363.6 
L 467.432209 315.758679 
z
" style="fill:#ff7f0e;"/>
   </g>
   <g id="patch_38">
    <path d="M 645.330942 399.146236 
C 645.332029 399.143426 645.333117 399.140617 645.334204 399.137807 
C 645.335291 399.134998 645.336378 399.132188 645.337465 399.129379 
L 553.5 363.6 
L 645.330942 399.146236 
z
" style="fill:#2ca02c;"/>
   </g>
   <g id="patch_39">
    <path d="M 645.337465 399.129379 
C 645.338914 399.125633 645.340363 399.121886 645.341812 399.11814 
C 645.343261 399.114394 645.34471 399.110647 645.346158 399.106901 
L 553.5 363.6 
L 645.337465 399.129379 
z
" style="fill:#d62728;"/>
   </g>
   <g id="patch_40">
    <path d="M 645.346158 399.106901 
C 645.346158 399.106901 645.346158 399.106901 645.346158 399.106901 
L 553.5 363.6 
L 645.346158 399.106901 
z
" style="fill:#9467bd;"/>
   </g>
   <g id="patch_41">
    <path d="M 645.346158 399.106901 
C 646.405812 396.365879 647.342233 393.578795 648.152607 390.754018 
C 648.962981 387.929242 649.646497 385.069604 650.201102 382.183693 
L 553.5 363.6 
L 645.346158 399.106901 
z
" style="fill:#8c564b;"/>
   </g>
   <g id="patch_42">
    <path d="M 650.201102 382.183693 
C 650.202428 382.17679 650.203754 382.169887 650.205079 382.162984 
C 650.206404 382.156081 650.207729 382.149178 650.209052 382.142274 
L 553.5 363.6 
L 650.201102 382.183693 
z
" style="fill:#e377c2;"/>
   </g>
   <g id="patch_43">
    <path d="M 650.209052 382.142274 
C 650.622063 379.988179 650.962987 377.820886 651.231255 375.644023 
C 651.499524 373.467159 651.694986 371.28194 651.817315 369.092023 
L 553.5 363.6 
L 650.209052 382.142274 
z
" style="fill:#7f7f7f;"/>
   </g>
   <g id="patch_44">
    <path d="M 651.817315 369.092023 
C 651.817315 369.092023 651.817315 369.092023 651.817315 369.092023 
L 553.5 363.6 
L 651.817315 369.092023 
z
" style="fill:#bcbd22;"/>
   </g>
   <g id="patch_45">
    <path d="M 651.817315 369.092023 
C 651.817427 369.090017 651.817539 369.088012 651.817651 369.086007 
C 651.817763 369.084002 651.817875 369.081996 651.817986 369.079991 
L 553.5 363.6 
L 651.817315 369.092023 
z
" style="fill:#17becf;"/>
   </g>
   <g id="patch_46">
    <path d="M 651.817986 369.079991 
C 651.817986 369.079991 651.817986 369.079991 651.817986 369.079991 
L 553.5 363.6 
L 651.817986 369.079991 
z
" style="fill:#1f77b4;"/>
   </g>
   <g id="patch_47">
    <path d="M 651.817986 369.079991 
C 651.867724 368.187643 651.90531 367.294659 651.930735 366.401287 
C 651.95616 365.507916 651.969421 364.614239 651.970514 363.720507 
L 553.5 363.6 
L 651.817986 369.079991 
z
" style="fill:#ff7f0e;"/>
   </g>
   <g id="patch_48">
    <path d="M 651.970514 363.720507 
C 651.970539 363.700423 651.970558 363.68034 651.97057 363.660256 
C 651.970582 363.640172 651.970588 363.620089 651.970588 363.600005 
L 553.5 363.6 
L 651.970514 363.720507 
z
" style="fill:#2ca02c;"/>
   </g>
   <g id="matplotlib.axis_3"/>
   <g id="matplotlib.axis_4"/>
   <g id="text_2">
    <!-- TCP -->
    <g transform="translate(542.380312 234.511765)scale(0.12 -0.12)">
     <defs>
      <path d="M -19 4666 
L 3928 4666 
L 3928 4134 
L 2272 4134 
L 2272 0 
L 1638 0 
L 1638 4134 
L -19 4134 
L -19 4666 
z
" id="DejaVuSans-54" transform="scale(0.015625)"/>
     </defs>
     <use xlink:href="#DejaVuSans-54"/>
     <use x="55.208984" xlink:href="#DejaVuSans-43"/>
     <use x="125.033203" xlink:href="#DejaVuSans-50"/>
    </g>
   </g>
   <g id="legend_2">
    <g id="patch_49">
     <path d="M 665.588235 253.511765 
L 669.588235 253.511765 
Q 671.588235 253.511765 671.588235 251.511765 
L 671.588235 247.511765 
Q 671.588235 245.511765 669.588235 245.511765 
L 665.588235 245.511765 
Q 663.588235 245.511765 663.588235 247.511765 
L 663.588235 251.511765 
Q 663.588235 253.511765 665.588235 253.511765 
z
" style="fill:#ffffff;opacity:0.8;stroke:#cccccc;stroke-linejoin:miter;"/>
    </g>
   </g>
  </g>
  <g id="axes_3">
   <g id="patch_50">
    <path d="M 947.382353 363.6 
C 947.382353 363.6 947.382353 363.6 947.382353 363.6 
L 848.911765 363.6 
L 947.382353 363.6 
z
" style="fill:#1f77b4;"/>
   </g>
   <g id="patch_51">
    <path d="M 947.382353 363.6 
C 947.382353 363.6 947.382353 363.6 947.382353 363.6 
L 848.911765 363.6 
L 947.382353 363.6 
z
" style="fill:#ff7f0e;"/>
   </g>
   <g id="patch_52">
    <path d="M 947.382353 363.6 
C 947.382353 363.6 947.382353 363.6 947.382353 363.6 
L 848.911765 363.6 
L 947.382353 363.6 
z
" style="fill:#2ca02c;"/>
   </g>
   <g id="patch_53">
    <path d="M 947.382353 363.6 
C 947.382353 363.6 947.382353 363.6 947.382353 363.6 
L 848.911765 363.6 
L 947.382353 363.6 
z
" style="fill:#d62728;"/>
   </g>
   <g id="patch_54">
    <path d="M 947.382353 363.6 
C 947.382353 363.6 947.382353 363.6 947.382353 363.6 
L 848.911765 363.6 
L 947.382353 363.6 
z
" style="fill:#9467bd;"/>
   </g>
   <g id="patch_55">
    <path d="M 947.382353 363.6 
C 947.382353 363.6 947.382353 363.6 947.382353 363.6 
L 848.911765 363.6 
L 947.382353 363.6 
z
" style="fill:#8c564b;"/>
   </g>
   <g id="patch_56">
    <path d="M 947.382353 363.6 
C 947.382353 363.6 947.382353 363.6 947.382353 363.6 
L 848.911765 363.6 
L 947.382353 363.6 
z
" style="fill:#e377c2;"/>
   </g>
   <g id="patch_57">
    <path d="M 947.382353 363.6 
C 947.382353 363.6 947.382353 363.6 947.382353 363.6 
L 848.911765 363.6 
L 947.382353 363.6 
z
" style="fill:#7f7f7f;"/>
   </g>
   <g id="patch_58">
    <path d="M 947.382353 363.6 
C 947.382353 363.6 947.382353 363.6 947.382353 363.6 
L 848.911765 363.6 
L 947.382353 363.6 
z
" style="fill:#bcbd22;"/>
   </g>
   <g id="patch_59">
    <path d="M 947.382353 363.6 
C 947.382353 363.6 947.382353 363.6 947.382353 363.6 
L 848.911765 363.6 
L 947.382353 363.6 
z
" style="fill:#17becf;"/>
   </g>
   <g id="patch_60">
    <path d="M 947.382353 363.6 
C 947.382353 361.9011 947.338387 360.202485 947.250498 358.505859 
C 947.16261 356.809234 947.030828 355.115168 946.855287 353.425361 
L 848.911765 363.6 
L 947.382353 363.6 
z
" style="fill:#1f77b4;"/>
   </g>
   <g id="patch_61">
    <path d="M 946.855287 353.425361 
C 945.748315 342.769391 942.909719 332.365141 938.451592 322.623468 
C 933.993464 312.881796 927.975271 303.93264 920.634665 296.129397 
C 913.29406 288.326154 904.728956 281.772908 895.277583 276.728442 
C 885.82621 271.683975 875.614636 268.215575 865.046109 266.460205 
C 854.477582 264.704836 843.693071 264.685911 833.118448 266.404178 
C 822.543825 268.122445 812.320141 271.554984 802.851122 276.566248 
C 793.382103 281.577512 784.794052 288.100657 777.426105 295.878089 
C 770.058158 303.655521 764.008593 312.5835 759.516303 322.309466 
C 755.024013 332.035433 752.148919 342.429656 751.004556 353.081675 
C 749.860192 363.733695 750.461825 374.501428 752.785694 384.959665 
C 755.109564 395.417902 759.124673 405.427145 764.672469 414.592135 
C 770.220265 423.757126 777.226748 431.955616 785.415236 438.863853 
C 793.603725 445.772091 802.864996 451.29793 812.833329 455.223159 
C 822.801662 459.148388 833.344094 461.42065 844.044311 461.950214 
C 854.744529 462.479779 865.459806 461.259583 875.767004 458.337811 
C 886.074203 455.416039 895.835839 450.831664 904.666433 444.765718 
L 848.911765 363.6 
L 946.855287 353.425361 
z
" style="fill:#ff7f0e;"/>
   </g>
   <g id="patch_62">
    <path d="M 904.666433 444.765718 
C 904.666433 444.765718 904.666433 444.765718 904.666433 444.765718 
L 848.911765 363.6 
L 904.666433 444.765718 
z
" style="fill:#2ca02c;"/>
   </g>
   <g id="patch_63">
    <path d="M 904.666433 444.765718 
C 904.666433 444.765718 904.666433 444.765718 904.666433 444.765718 
L 848.911765 363.6 
L 904.666433 444.765718 
z
" style="fill:#d62728;"/>
   </g>
   <g id="patch_64">
    <path d="M 904.666433 444.765718 
C 904.666433 444.765718 904.666433 444.765718 904.666433 444.765718 
L 848.911765 363.6 
L 904.666433 444.765718 
z
" style="fill:#9467bd;"/>
   </g>
   <g id="patch_65">
    <path d="M 904.666433 444.765718 
C 904.666433 444.765718 904.666433 444.765718 904.666433 444.765718 
L 848.911765 363.6 
L 904.666433 444.765718 
z
" style="fill:#8c564b;"/>
   </g>
   <g id="patch_66">
    <path d="M 904.666433 444.765718 
C 904.68344 444.754035 904.700444 444.742347 904.717444 444.730654 
C 904.734443 444.71896 904.75144 444.707262 904.768432 444.695557 
L 848.911765 363.6 
L 904.666433 444.765718 
z
" style="fill:#e377c2;"/>
   </g>
   <g id="patch_67">
    <path d="M 904.768432 444.695557 
C 912.809289 439.157209 919.981903 432.453619 926.050563 424.805086 
C 932.119223 417.156553 937.016715 408.647788 940.582094 399.558412 
L 848.911765 363.6 
L 904.768432 444.695557 
z
" style="fill:#7f7f7f;"/>
   </g>
   <g id="patch_68">
    <path d="M 940.582094 399.558412 
C 940.582094 399.558412 940.582094 399.558412 940.582094 399.558412 
L 848.911765 363.6 
L 940.582094 399.558412 
z
" style="fill:#bcbd22;"/>
   </g>
   <g id="patch_69">
    <path d="M 940.582094 399.558412 
C 940.582094 399.558412 940.582094 399.558412 940.582094 399.558412 
L 848.911765 363.6 
L 940.582094 399.558412 
z
" style="fill:#17becf;"/>
   </g>
   <g id="patch_70">
    <path d="M 940.582094 399.558412 
C 942.82402 393.842975 944.526524 387.930373 945.667355 381.897882 
C 946.808187 375.86539 947.382354 369.739404 947.382353 363.599986 
L 848.911765 363.6 
L 940.582094 399.558412 
z
" style="fill:#1f77b4;"/>
   </g>
   <g id="patch_71">
    <path d="M 947.382353 363.599986 
C 947.382353 363.599986 947.382353 363.599986 947.382353 363.599986 
L 848.911765 363.6 
L 947.382353 363.599986 
z
" style="fill:#ff7f0e;"/>
   </g>
   <g id="patch_72">
    <path d="M 947.382353 363.599986 
C 947.382353 363.599986 947.382353 363.599986 947.382353 363.599986 
L 848.911765 363.6 
L 947.382353 363.599986 
z
" style="fill:#2ca02c;"/>
   </g>
   <g id="matplotlib.axis_5"/>
   <g id="matplotlib.axis_6"/>
   <g id="text_3">
    <!-- UDP -->
    <g transform="translate(836.282702 234.511765)scale(0.12 -0.12)">
     <defs>
      <path d="M 556 4666 
L 1191 4666 
L 1191 1831 
Q 1191 1081 1462 751 
Q 1734 422 2344 422 
Q 2950 422 3222 751 
Q 3494 1081 3494 1831 
L 3494 4666 
L 4128 4666 
L 4128 1753 
Q 4128 841 3676 375 
Q 3225 -91 2344 -91 
Q 1459 -91 1007 375 
Q 556 841 556 1753 
L 556 4666 
z
" id="DejaVuSans-55" transform="scale(0.015625)"/>
      <path d="M 1259 4147 
L 1259 519 
L 2022 519 
Q 2988 519 3436 956 
Q 3884 1394 3884 2338 
Q 3884 3275 3436 3711 
Q 2988 4147 2022 4147 
L 1259 4147 
z
M 628 4666 
L 1925 4666 
Q 3281 4666 3915 4102 
Q 4550 3538 4550 2338 
Q 4550 1131 3912 565 
Q 3275 0 1925 0 
L 628 0 
L 628 4666 
z
" id="DejaVuSans-44" transform="scale(0.015625)"/>
     </defs>
     <use xlink:href="#DejaVuSans-55"/>
     <use x="73.193359" xlink:href="#DejaVuSans-44"/>
     <use x="150.195312" xlink:href="#DejaVuSans-50"/>
    </g>
   </g>
   <g id="legend_3">
    <g id="patch_73">
     <path d="M 422.285386 555.541176 
L 935.458824 555.541176 
Q 937.458824 555.541176 937.458824 553.541176 
L 937.458824 480.316176 
Q 937.458824 478.316176 935.458824 478.316176 
L 422.285386 478.316176 
Q 420.285386 478.316176 420.285386 480.316176 
L 420.285386 553.541176 
Q 420.285386 555.541176 422.285386 555.541176 
z
" style="fill:#ffffff;opacity:0.8;stroke:#cccccc;stroke-linejoin:miter;"/>
    </g>
    <g id="patch_74">
     <path d="M 424.285386 489.914614 
L 444.285386 489.914614 
L 444.285386 482.914614 
L 424.285386 482.914614 
z
" style="fill:#1f77b4;"/>
    </g>
    <g id="text_4">
     <!-- back -->
     <g transform="translate(452.285386 489.914614)scale(0.1 -0.1)">
      <defs>
       <path d="M 3116 1747 
Q 3116 2381 2855 2742 
Q 2594 3103 2138 3103 
Q 1681 3103 1420 2742 
Q 1159 2381 1159 1747 
Q 1159 1113 1420 752 
Q 1681 391 2138 391 
Q 2594 391 2855 752 
Q 3116 1113 3116 1747 
z
M 1159 2969 
Q 1341 3281 1617 3432 
Q 1894 3584 2278 3584 
Q 2916 3584 3314 3078 
Q 3713 2572 3713 1747 
Q 3713 922 3314 415 
Q 2916 -91 2278 -91 
Q 1894 -91 1617 61 
Q 1341 213 1159 525 
L 1159 0 
L 581 0 
L 581 4863 
L 1159 4863 
L 1159 2969 
z
" id="DejaVuSans-62" transform="scale(0.015625)"/>
       <path d="M 2194 1759 
Q 1497 1759 1228 1600 
Q 959 1441 959 1056 
Q 959 750 1161 570 
Q 1363 391 1709 391 
Q 2188 391 2477 730 
Q 2766 1069 2766 1631 
L 2766 1759 
L 2194 1759 
z
M 3341 1997 
L 3341 0 
L 2766 0 
L 2766 531 
Q 2569 213 2275 61 
Q 1981 -91 1556 -91 
Q 1019 -91 701 211 
Q 384 513 384 1019 
Q 384 1609 779 1909 
Q 1175 2209 1959 2209 
L 2766 2209 
L 2766 2266 
Q 2766 2663 2505 2880 
Q 2244 3097 1772 3097 
Q 1472 3097 1187 3025 
Q 903 2953 641 2809 
L 641 3341 
Q 956 3463 1253 3523 
Q 1550 3584 1831 3584 
Q 2591 3584 2966 3190 
Q 3341 2797 3341 1997 
z
" id="DejaVuSans-61" transform="scale(0.015625)"/>
       <path d="M 3122 3366 
L 3122 2828 
Q 2878 2963 2633 3030 
Q 2388 3097 2138 3097 
Q 1578 3097 1268 2742 
Q 959 2388 959 1747 
Q 959 1106 1268 751 
Q 1578 397 2138 397 
Q 2388 397 2633 464 
Q 2878 531 3122 666 
L 3122 134 
Q 2881 22 2623 -34 
Q 2366 -91 2075 -91 
Q 1284 -91 818 406 
Q 353 903 353 1747 
Q 353 2603 823 3093 
Q 1294 3584 2113 3584 
Q 2378 3584 2631 3529 
Q 2884 3475 3122 3366 
z
" id="DejaVuSans-63" transform="scale(0.015625)"/>
       <path d="M 581 4863 
L 1159 4863 
L 1159 1991 
L 2875 3500 
L 3609 3500 
L 1753 1863 
L 3688 0 
L 2938 0 
L 1159 1709 
L 1159 0 
L 581 0 
L 581 4863 
z
" id="DejaVuSans-6b" transform="scale(0.015625)"/>
      </defs>
      <use xlink:href="#DejaVuSans-62"/>
      <use x="63.476562" xlink:href="#DejaVuSans-61"/>
      <use x="124.755859" xlink:href="#DejaVuSans-63"/>
      <use x="179.736328" xlink:href="#DejaVuSans-6b"/>
     </g>
    </g>
    <g id="patch_75">
     <path d="M 424.285386 504.592739 
L 444.285386 504.592739 
L 444.285386 497.592739 
L 424.285386 497.592739 
z
" style="fill:#ff7f0e;"/>
    </g>
    <g id="text_5">
     <!-- buffer_overflow -->
     <g transform="translate(452.285386 504.592739)scale(0.1 -0.1)">
      <defs>
       <path d="M 544 1381 
L 544 3500 
L 1119 3500 
L 1119 1403 
Q 1119 906 1312 657 
Q 1506 409 1894 409 
Q 2359 409 2629 706 
Q 2900 1003 2900 1516 
L 2900 3500 
L 3475 3500 
L 3475 0 
L 2900 0 
L 2900 538 
Q 2691 219 2414 64 
Q 2138 -91 1772 -91 
Q 1169 -91 856 284 
Q 544 659 544 1381 
z
M 1991 3584 
L 1991 3584 
z
" id="DejaVuSans-75" transform="scale(0.015625)"/>
       <path d="M 2375 4863 
L 2375 4384 
L 1825 4384 
Q 1516 4384 1395 4259 
Q 1275 4134 1275 3809 
L 1275 3500 
L 2222 3500 
L 2222 3053 
L 1275 3053 
L 1275 0 
L 697 0 
L 697 3053 
L 147 3053 
L 147 3500 
L 697 3500 
L 697 3744 
Q 697 4328 969 4595 
Q 1241 4863 1831 4863 
L 2375 4863 
z
" id="DejaVuSans-66" transform="scale(0.015625)"/>
       <path d="M 3597 1894 
L 3597 1613 
L 953 1613 
Q 991 1019 1311 708 
Q 1631 397 2203 397 
Q 2534 397 2845 478 
Q 3156 559 3463 722 
L 3463 178 
Q 3153 47 2828 -22 
Q 2503 -91 2169 -91 
Q 1331 -91 842 396 
Q 353 884 353 1716 
Q 353 2575 817 3079 
Q 1281 3584 2069 3584 
Q 2775 3584 3186 3129 
Q 3597 2675 3597 1894 
z
M 3022 2063 
Q 3016 2534 2758 2815 
Q 2500 3097 2075 3097 
Q 1594 3097 1305 2825 
Q 1016 2553 972 2059 
L 3022 2063 
z
" id="DejaVuSans-65" transform="scale(0.015625)"/>
       <path d="M 2631 2963 
Q 2534 3019 2420 3045 
Q 2306 3072 2169 3072 
Q 1681 3072 1420 2755 
Q 1159 2438 1159 1844 
L 1159 0 
L 581 0 
L 581 3500 
L 1159 3500 
L 1159 2956 
Q 1341 3275 1631 3429 
Q 1922 3584 2338 3584 
Q 2397 3584 2469 3576 
Q 2541 3569 2628 3553 
L 2631 2963 
z
" id="DejaVuSans-72" transform="scale(0.015625)"/>
       <path d="M 3263 -1063 
L 3263 -1509 
L -63 -1509 
L -63 -1063 
L 3263 -1063 
z
" id="DejaVuSans-5f" transform="scale(0.015625)"/>
       <path d="M 1959 3097 
Q 1497 3097 1228 2736 
Q 959 2375 959 1747 
Q 959 1119 1226 758 
Q 1494 397 1959 397 
Q 2419 397 2687 759 
Q 2956 1122 2956 1747 
Q 2956 2369 2687 2733 
Q 2419 3097 1959 3097 
z
M 1959 3584 
Q 2709 3584 3137 3096 
Q 3566 2609 3566 1747 
Q 3566 888 3137 398 
Q 2709 -91 1959 -91 
Q 1206 -91 779 398 
Q 353 888 353 1747 
Q 353 2609 779 3096 
Q 1206 3584 1959 3584 
z
" id="DejaVuSans-6f" transform="scale(0.015625)"/>
       <path d="M 191 3500 
L 800 3500 
L 1894 563 
L 2988 3500 
L 3597 3500 
L 2284 0 
L 1503 0 
L 191 3500 
z
" id="DejaVuSans-76" transform="scale(0.015625)"/>
       <path d="M 603 4863 
L 1178 4863 
L 1178 0 
L 603 0 
L 603 4863 
z
" id="DejaVuSans-6c" transform="scale(0.015625)"/>
       <path d="M 269 3500 
L 844 3500 
L 1563 769 
L 2278 3500 
L 2956 3500 
L 3675 769 
L 4391 3500 
L 4966 3500 
L 4050 0 
L 3372 0 
L 2619 2869 
L 1863 0 
L 1184 0 
L 269 3500 
z
" id="DejaVuSans-77" transform="scale(0.015625)"/>
      </defs>
      <use xlink:href="#DejaVuSans-62"/>
      <use x="63.476562" xlink:href="#DejaVuSans-75"/>
      <use x="126.855469" xlink:href="#DejaVuSans-66"/>
      <use x="162.060547" xlink:href="#DejaVuSans-66"/>
      <use x="197.265625" xlink:href="#DejaVuSans-65"/>
      <use x="258.789062" xlink:href="#DejaVuSans-72"/>
      <use x="299.902344" xlink:href="#DejaVuSans-5f"/>
      <use x="349.902344" xlink:href="#DejaVuSans-6f"/>
      <use x="411.083984" xlink:href="#DejaVuSans-76"/>
      <use x="470.263672" xlink:href="#DejaVuSans-65"/>
      <use x="531.787109" xlink:href="#DejaVuSans-72"/>
      <use x="572.900391" xlink:href="#DejaVuSans-66"/>
      <use x="608.105469" xlink:href="#DejaVuSans-6c"/>
      <use x="635.888672" xlink:href="#DejaVuSans-6f"/>
      <use x="697.070312" xlink:href="#DejaVuSans-77"/>
     </g>
    </g>
    <g id="patch_76">
     <path d="M 424.285386 519.548989 
L 444.285386 519.548989 
L 444.285386 512.548989 
L 424.285386 512.548989 
z
" style="fill:#2ca02c;"/>
    </g>
    <g id="text_6">
     <!-- ftp_write -->
     <g transform="translate(452.285386 519.548989)scale(0.1 -0.1)">
      <defs>
       <path d="M 1172 4494 
L 1172 3500 
L 2356 3500 
L 2356 3053 
L 1172 3053 
L 1172 1153 
Q 1172 725 1289 603 
Q 1406 481 1766 481 
L 2356 481 
L 2356 0 
L 1766 0 
Q 1100 0 847 248 
Q 594 497 594 1153 
L 594 3053 
L 172 3053 
L 172 3500 
L 594 3500 
L 594 4494 
L 1172 4494 
z
" id="DejaVuSans-74" transform="scale(0.015625)"/>
       <path d="M 1159 525 
L 1159 -1331 
L 581 -1331 
L 581 3500 
L 1159 3500 
L 1159 2969 
Q 1341 3281 1617 3432 
Q 1894 3584 2278 3584 
Q 2916 3584 3314 3078 
Q 3713 2572 3713 1747 
Q 3713 922 3314 415 
Q 2916 -91 2278 -91 
Q 1894 -91 1617 61 
Q 1341 213 1159 525 
z
M 3116 1747 
Q 3116 2381 2855 2742 
Q 2594 3103 2138 3103 
Q 1681 3103 1420 2742 
Q 1159 2381 1159 1747 
Q 1159 1113 1420 752 
Q 1681 391 2138 391 
Q 2594 391 2855 752 
Q 3116 1113 3116 1747 
z
" id="DejaVuSans-70" transform="scale(0.015625)"/>
       <path d="M 603 3500 
L 1178 3500 
L 1178 0 
L 603 0 
L 603 3500 
z
M 603 4863 
L 1178 4863 
L 1178 4134 
L 603 4134 
L 603 4863 
z
" id="DejaVuSans-69" transform="scale(0.015625)"/>
      </defs>
      <use xlink:href="#DejaVuSans-66"/>
      <use x="33.455078" xlink:href="#DejaVuSans-74"/>
      <use x="72.664062" xlink:href="#DejaVuSans-70"/>
      <use x="136.140625" xlink:href="#DejaVuSans-5f"/>
      <use x="186.140625" xlink:href="#DejaVuSans-77"/>
      <use x="267.927734" xlink:href="#DejaVuSans-72"/>
      <use x="309.041016" xlink:href="#DejaVuSans-69"/>
      <use x="336.824219" xlink:href="#DejaVuSans-74"/>
      <use x="376.033203" xlink:href="#DejaVuSans-65"/>
     </g>
    </g>
    <g id="patch_77">
     <path d="M 424.285386 534.505239 
L 444.285386 534.505239 
L 444.285386 527.505239 
L 424.285386 527.505239 
z
" style="fill:#d62728;"/>
    </g>
    <g id="text_7">
     <!-- guess_passwd -->
     <g transform="translate(452.285386 534.505239)scale(0.1 -0.1)">
      <defs>
       <path d="M 2906 1791 
Q 2906 2416 2648 2759 
Q 2391 3103 1925 3103 
Q 1463 3103 1205 2759 
Q 947 2416 947 1791 
Q 947 1169 1205 825 
Q 1463 481 1925 481 
Q 2391 481 2648 825 
Q 2906 1169 2906 1791 
z
M 3481 434 
Q 3481 -459 3084 -895 
Q 2688 -1331 1869 -1331 
Q 1566 -1331 1297 -1286 
Q 1028 -1241 775 -1147 
L 775 -588 
Q 1028 -725 1275 -790 
Q 1522 -856 1778 -856 
Q 2344 -856 2625 -561 
Q 2906 -266 2906 331 
L 2906 616 
Q 2728 306 2450 153 
Q 2172 0 1784 0 
Q 1141 0 747 490 
Q 353 981 353 1791 
Q 353 2603 747 3093 
Q 1141 3584 1784 3584 
Q 2172 3584 2450 3431 
Q 2728 3278 2906 2969 
L 2906 3500 
L 3481 3500 
L 3481 434 
z
" id="DejaVuSans-67" transform="scale(0.015625)"/>
       <path d="M 2834 3397 
L 2834 2853 
Q 2591 2978 2328 3040 
Q 2066 3103 1784 3103 
Q 1356 3103 1142 2972 
Q 928 2841 928 2578 
Q 928 2378 1081 2264 
Q 1234 2150 1697 2047 
L 1894 2003 
Q 2506 1872 2764 1633 
Q 3022 1394 3022 966 
Q 3022 478 2636 193 
Q 2250 -91 1575 -91 
Q 1294 -91 989 -36 
Q 684 19 347 128 
L 347 722 
Q 666 556 975 473 
Q 1284 391 1588 391 
Q 1994 391 2212 530 
Q 2431 669 2431 922 
Q 2431 1156 2273 1281 
Q 2116 1406 1581 1522 
L 1381 1569 
Q 847 1681 609 1914 
Q 372 2147 372 2553 
Q 372 3047 722 3315 
Q 1072 3584 1716 3584 
Q 2034 3584 2315 3537 
Q 2597 3491 2834 3397 
z
" id="DejaVuSans-73" transform="scale(0.015625)"/>
       <path d="M 2906 2969 
L 2906 4863 
L 3481 4863 
L 3481 0 
L 2906 0 
L 2906 525 
Q 2725 213 2448 61 
Q 2172 -91 1784 -91 
Q 1150 -91 751 415 
Q 353 922 353 1747 
Q 353 2572 751 3078 
Q 1150 3584 1784 3584 
Q 2172 3584 2448 3432 
Q 2725 3281 2906 2969 
z
M 947 1747 
Q 947 1113 1208 752 
Q 1469 391 1925 391 
Q 2381 391 2643 752 
Q 2906 1113 2906 1747 
Q 2906 2381 2643 2742 
Q 2381 3103 1925 3103 
Q 1469 3103 1208 2742 
Q 947 2381 947 1747 
z
" id="DejaVuSans-64" transform="scale(0.015625)"/>
      </defs>
      <use xlink:href="#DejaVuSans-67"/>
      <use x="63.476562" xlink:href="#DejaVuSans-75"/>
      <use x="126.855469" xlink:href="#DejaVuSans-65"/>
      <use x="188.378906" xlink:href="#DejaVuSans-73"/>
      <use x="240.478516" xlink:href="#DejaVuSans-73"/>
      <use x="292.578125" xlink:href="#DejaVuSans-5f"/>
      <use x="342.578125" xlink:href="#DejaVuSans-70"/>
      <use x="406.054688" xlink:href="#DejaVuSans-61"/>
      <use x="467.333984" xlink:href="#DejaVuSans-73"/>
      <use x="519.433594" xlink:href="#DejaVuSans-73"/>
      <use x="571.533203" xlink:href="#DejaVuSans-77"/>
      <use x="653.320312" xlink:href="#DejaVuSans-64"/>
     </g>
    </g>
    <g id="patch_78">
     <path d="M 424.285386 549.461489 
L 444.285386 549.461489 
L 444.285386 542.461489 
L 424.285386 542.461489 
z
" style="fill:#9467bd;"/>
    </g>
    <g id="text_8">
     <!-- imap -->
     <g transform="translate(452.285386 549.461489)scale(0.1 -0.1)">
      <defs>
       <path d="M 3328 2828 
Q 3544 3216 3844 3400 
Q 4144 3584 4550 3584 
Q 5097 3584 5394 3201 
Q 5691 2819 5691 2113 
L 5691 0 
L 5113 0 
L 5113 2094 
Q 5113 2597 4934 2840 
Q 4756 3084 4391 3084 
Q 3944 3084 3684 2787 
Q 3425 2491 3425 1978 
L 3425 0 
L 2847 0 
L 2847 2094 
Q 2847 2600 2669 2842 
Q 2491 3084 2119 3084 
Q 1678 3084 1418 2786 
Q 1159 2488 1159 1978 
L 1159 0 
L 581 0 
L 581 3500 
L 1159 3500 
L 1159 2956 
Q 1356 3278 1631 3431 
Q 1906 3584 2284 3584 
Q 2666 3584 2933 3390 
Q 3200 3197 3328 2828 
z
" id="DejaVuSans-6d" transform="scale(0.015625)"/>
      </defs>
      <use xlink:href="#DejaVuSans-69"/>
      <use x="27.783203" xlink:href="#DejaVuSans-6d"/>
      <use x="125.195312" xlink:href="#DejaVuSans-61"/>
      <use x="186.474609" xlink:href="#DejaVuSans-70"/>
     </g>
    </g>
    <g id="patch_79">
     <path d="M 550.172886 489.914614 
L 570.172886 489.914614 
L 570.172886 482.914614 
L 550.172886 482.914614 
z
" style="fill:#8c564b;"/>
    </g>
    <g id="text_9">
     <!-- ipsweep -->
     <g transform="translate(578.172886 489.914614)scale(0.1 -0.1)">
      <use xlink:href="#DejaVuSans-69"/>
      <use x="27.783203" xlink:href="#DejaVuSans-70"/>
      <use x="91.259766" xlink:href="#DejaVuSans-73"/>
      <use x="143.359375" xlink:href="#DejaVuSans-77"/>
      <use x="225.146484" xlink:href="#DejaVuSans-65"/>
      <use x="286.669922" xlink:href="#DejaVuSans-65"/>
      <use x="348.193359" xlink:href="#DejaVuSans-70"/>
     </g>
    </g>
    <g id="patch_80">
     <path d="M 550.172886 504.592739 
L 570.172886 504.592739 
L 570.172886 497.592739 
L 550.172886 497.592739 
z
" style="fill:#e377c2;"/>
    </g>
    <g id="text_10">
     <!-- land -->
     <g transform="translate(578.172886 504.592739)scale(0.1 -0.1)">
      <defs>
       <path d="M 3513 2113 
L 3513 0 
L 2938 0 
L 2938 2094 
Q 2938 2591 2744 2837 
Q 2550 3084 2163 3084 
Q 1697 3084 1428 2787 
Q 1159 2491 1159 1978 
L 1159 0 
L 581 0 
L 581 3500 
L 1159 3500 
L 1159 2956 
Q 1366 3272 1645 3428 
Q 1925 3584 2291 3584 
Q 2894 3584 3203 3211 
Q 3513 2838 3513 2113 
z
" id="DejaVuSans-6e" transform="scale(0.015625)"/>
      </defs>
      <use xlink:href="#DejaVuSans-6c"/>
      <use x="27.783203" xlink:href="#DejaVuSans-61"/>
      <use x="89.0625" xlink:href="#DejaVuSans-6e"/>
      <use x="152.441406" xlink:href="#DejaVuSans-64"/>
     </g>
    </g>
    <g id="patch_81">
     <path d="M 550.172886 519.270864 
L 570.172886 519.270864 
L 570.172886 512.270864 
L 550.172886 512.270864 
z
" style="fill:#7f7f7f;"/>
    </g>
    <g id="text_11">
     <!-- loadmodule -->
     <g transform="translate(578.172886 519.270864)scale(0.1 -0.1)">
      <use xlink:href="#DejaVuSans-6c"/>
      <use x="27.783203" xlink:href="#DejaVuSans-6f"/>
      <use x="88.964844" xlink:href="#DejaVuSans-61"/>
      <use x="150.244141" xlink:href="#DejaVuSans-64"/>
      <use x="213.720703" xlink:href="#DejaVuSans-6d"/>
      <use x="311.132812" xlink:href="#DejaVuSans-6f"/>
      <use x="372.314453" xlink:href="#DejaVuSans-64"/>
      <use x="435.791016" xlink:href="#DejaVuSans-75"/>
      <use x="499.169922" xlink:href="#DejaVuSans-6c"/>
      <use x="526.953125" xlink:href="#DejaVuSans-65"/>
     </g>
    </g>
    <g id="patch_82">
     <path d="M 550.172886 533.948989 
L 570.172886 533.948989 
L 570.172886 526.948989 
L 550.172886 526.948989 
z
" style="fill:#bcbd22;"/>
    </g>
    <g id="text_12">
     <!-- multihop -->
     <g transform="translate(578.172886 533.948989)scale(0.1 -0.1)">
      <defs>
       <path d="M 3513 2113 
L 3513 0 
L 2938 0 
L 2938 2094 
Q 2938 2591 2744 2837 
Q 2550 3084 2163 3084 
Q 1697 3084 1428 2787 
Q 1159 2491 1159 1978 
L 1159 0 
L 581 0 
L 581 4863 
L 1159 4863 
L 1159 2956 
Q 1366 3272 1645 3428 
Q 1925 3584 2291 3584 
Q 2894 3584 3203 3211 
Q 3513 2838 3513 2113 
z
" id="DejaVuSans-68" transform="scale(0.015625)"/>
      </defs>
      <use xlink:href="#DejaVuSans-6d"/>
      <use x="97.412109" xlink:href="#DejaVuSans-75"/>
      <use x="160.791016" xlink:href="#DejaVuSans-6c"/>
      <use x="188.574219" xlink:href="#DejaVuSans-74"/>
      <use x="227.783203" xlink:href="#DejaVuSans-69"/>
      <use x="255.566406" xlink:href="#DejaVuSans-68"/>
      <use x="318.945312" xlink:href="#DejaVuSans-6f"/>
      <use x="380.126953" xlink:href="#DejaVuSans-70"/>
     </g>
    </g>
    <g id="patch_83">
     <path d="M 550.172886 548.627114 
L 570.172886 548.627114 
L 570.172886 541.627114 
L 550.172886 541.627114 
z
" style="fill:#17becf;"/>
    </g>
    <g id="text_13">
     <!-- neptune -->
     <g transform="translate(578.172886 548.627114)scale(0.1 -0.1)">
      <use xlink:href="#DejaVuSans-6e"/>
      <use x="63.378906" xlink:href="#DejaVuSans-65"/>
      <use x="124.902344" xlink:href="#DejaVuSans-70"/>
      <use x="188.378906" xlink:href="#DejaVuSans-74"/>
      <use x="227.587891" xlink:href="#DejaVuSans-75"/>
      <use x="290.966797" xlink:href="#DejaVuSans-6e"/>
      <use x="354.345703" xlink:href="#DejaVuSans-65"/>
     </g>
    </g>
    <g id="patch_84">
     <path d="M 657.022886 489.914614 
L 677.022886 489.914614 
L 677.022886 482.914614 
L 657.022886 482.914614 
z
" style="fill:#1f77b4;"/>
    </g>
    <g id="text_14">
     <!-- nmap -->
     <g transform="translate(685.022886 489.914614)scale(0.1 -0.1)">
      <use xlink:href="#DejaVuSans-6e"/>
      <use x="63.378906" xlink:href="#DejaVuSans-6d"/>
      <use x="160.791016" xlink:href="#DejaVuSans-61"/>
      <use x="222.070312" xlink:href="#DejaVuSans-70"/>
     </g>
    </g>
    <g id="patch_85">
     <path d="M 657.022886 504.592739 
L 677.022886 504.592739 
L 677.022886 497.592739 
L 657.022886 497.592739 
z
" style="fill:#ff7f0e;"/>
    </g>
    <g id="text_15">
     <!-- normal -->
     <g transform="translate(685.022886 504.592739)scale(0.1 -0.1)">
      <use xlink:href="#DejaVuSans-6e"/>
      <use x="63.378906" xlink:href="#DejaVuSans-6f"/>
      <use x="124.560547" xlink:href="#DejaVuSans-72"/>
      <use x="163.923828" xlink:href="#DejaVuSans-6d"/>
      <use x="261.335938" xlink:href="#DejaVuSans-61"/>
      <use x="322.615234" xlink:href="#DejaVuSans-6c"/>
     </g>
    </g>
    <g id="patch_86">
     <path d="M 657.022886 519.270864 
L 677.022886 519.270864 
L 677.022886 512.270864 
L 657.022886 512.270864 
z
" style="fill:#2ca02c;"/>
    </g>
    <g id="text_16">
     <!-- perl -->
     <g transform="translate(685.022886 519.270864)scale(0.1 -0.1)">
      <use xlink:href="#DejaVuSans-70"/>
      <use x="63.476562" xlink:href="#DejaVuSans-65"/>
      <use x="125" xlink:href="#DejaVuSans-72"/>
      <use x="166.113281" xlink:href="#DejaVuSans-6c"/>
     </g>
    </g>
    <g id="patch_87">
     <path d="M 657.022886 533.948989 
L 677.022886 533.948989 
L 677.022886 526.948989 
L 657.022886 526.948989 
z
" style="fill:#d62728;"/>
    </g>
    <g id="text_17">
     <!-- phf -->
     <g transform="translate(685.022886 533.948989)scale(0.1 -0.1)">
      <use xlink:href="#DejaVuSans-70"/>
      <use x="63.476562" xlink:href="#DejaVuSans-68"/>
      <use x="126.855469" xlink:href="#DejaVuSans-66"/>
     </g>
    </g>
    <g id="patch_88">
     <path d="M 657.022886 548.627114 
L 677.022886 548.627114 
L 677.022886 541.627114 
L 657.022886 541.627114 
z
" style="fill:#9467bd;"/>
    </g>
    <g id="text_18">
     <!-- pod -->
     <g transform="translate(685.022886 548.627114)scale(0.1 -0.1)">
      <use xlink:href="#DejaVuSans-70"/>
      <use x="63.476562" xlink:href="#DejaVuSans-6f"/>
      <use x="124.658203" xlink:href="#DejaVuSans-64"/>
     </g>
    </g>
    <g id="patch_89">
     <path d="M 740.061949 489.914614 
L 760.061949 489.914614 
L 760.061949 482.914614 
L 740.061949 482.914614 
z
" style="fill:#8c564b;"/>
    </g>
    <g id="text_19">
     <!-- portsweep -->
     <g transform="translate(768.061949 489.914614)scale(0.1 -0.1)">
      <use xlink:href="#DejaVuSans-70"/>
      <use x="63.476562" xlink:href="#DejaVuSans-6f"/>
      <use x="124.658203" xlink:href="#DejaVuSans-72"/>
      <use x="165.771484" xlink:href="#DejaVuSans-74"/>
      <use x="204.980469" xlink:href="#DejaVuSans-73"/>
      <use x="257.080078" xlink:href="#DejaVuSans-77"/>
      <use x="338.867188" xlink:href="#DejaVuSans-65"/>
      <use x="400.390625" xlink:href="#DejaVuSans-65"/>
      <use x="461.914062" xlink:href="#DejaVuSans-70"/>
     </g>
    </g>
    <g id="patch_90">
     <path d="M 740.061949 504.592739 
L 760.061949 504.592739 
L 760.061949 497.592739 
L 740.061949 497.592739 
z
" style="fill:#e377c2;"/>
    </g>
    <g id="text_20">
     <!-- rootkit -->
     <g transform="translate(768.061949 504.592739)scale(0.1 -0.1)">
      <use xlink:href="#DejaVuSans-72"/>
      <use x="38.863281" xlink:href="#DejaVuSans-6f"/>
      <use x="100.044922" xlink:href="#DejaVuSans-6f"/>
      <use x="161.226562" xlink:href="#DejaVuSans-74"/>
      <use x="200.435547" xlink:href="#DejaVuSans-6b"/>
      <use x="258.345703" xlink:href="#DejaVuSans-69"/>
      <use x="286.128906" xlink:href="#DejaVuSans-74"/>
     </g>
    </g>
    <g id="patch_91">
     <path d="M 740.061949 519.270864 
L 760.061949 519.270864 
L 760.061949 512.270864 
L 740.061949 512.270864 
z
" style="fill:#7f7f7f;"/>
    </g>
    <g id="text_21">
     <!-- satan -->
     <g transform="translate(768.061949 519.270864)scale(0.1 -0.1)">
      <use xlink:href="#DejaVuSans-73"/>
      <use x="52.099609" xlink:href="#DejaVuSans-61"/>
      <use x="113.378906" xlink:href="#DejaVuSans-74"/>
      <use x="152.587891" xlink:href="#DejaVuSans-61"/>
      <use x="213.867188" xlink:href="#DejaVuSans-6e"/>
     </g>
    </g>
    <g id="patch_92">
     <path d="M 740.061949 533.948989 
L 760.061949 533.948989 
L 760.061949 526.948989 
L 740.061949 526.948989 
z
" style="fill:#bcbd22;"/>
    </g>
    <g id="text_22">
     <!-- smurf -->
     <g transform="translate(768.061949 533.948989)scale(0.1 -0.1)">
      <use xlink:href="#DejaVuSans-73"/>
      <use x="52.099609" xlink:href="#DejaVuSans-6d"/>
      <use x="149.511719" xlink:href="#DejaVuSans-75"/>
      <use x="212.890625" xlink:href="#DejaVuSans-72"/>
      <use x="254.003906" xlink:href="#DejaVuSans-66"/>
     </g>
    </g>
    <g id="patch_93">
     <path d="M 840.602574 489.914614 
L 860.602574 489.914614 
L 860.602574 482.914614 
L 840.602574 482.914614 
z
" style="fill:#17becf;"/>
    </g>
    <g id="text_23">
     <!-- spy -->
     <g transform="translate(868.602574 489.914614)scale(0.1 -0.1)">
      <defs>
       <path d="M 2059 -325 
Q 1816 -950 1584 -1140 
Q 1353 -1331 966 -1331 
L 506 -1331 
L 506 -850 
L 844 -850 
Q 1081 -850 1212 -737 
Q 1344 -625 1503 -206 
L 1606 56 
L 191 3500 
L 800 3500 
L 1894 763 
L 2988 3500 
L 3597 3500 
L 2059 -325 
z
" id="DejaVuSans-79" transform="scale(0.015625)"/>
      </defs>
      <use xlink:href="#DejaVuSans-73"/>
      <use x="52.099609" xlink:href="#DejaVuSans-70"/>
      <use x="115.576172" xlink:href="#DejaVuSans-79"/>
     </g>
    </g>
    <g id="patch_94">
     <path d="M 840.602574 504.592739 
L 860.602574 504.592739 
L 860.602574 497.592739 
L 840.602574 497.592739 
z
" style="fill:#1f77b4;"/>
    </g>
    <g id="text_24">
     <!-- teardrop -->
     <g transform="translate(868.602574 504.592739)scale(0.1 -0.1)">
      <use xlink:href="#DejaVuSans-74"/>
      <use x="39.208984" xlink:href="#DejaVuSans-65"/>
      <use x="100.732422" xlink:href="#DejaVuSans-61"/>
      <use x="162.011719" xlink:href="#DejaVuSans-72"/>
      <use x="201.375" xlink:href="#DejaVuSans-64"/>
      <use x="264.851562" xlink:href="#DejaVuSans-72"/>
      <use x="303.714844" xlink:href="#DejaVuSans-6f"/>
      <use x="364.896484" xlink:href="#DejaVuSans-70"/>
     </g>
    </g>
    <g id="patch_95">
     <path d="M 840.602574 519.270864 
L 860.602574 519.270864 
L 860.602574 512.270864 
L 840.602574 512.270864 
z
" style="fill:#ff7f0e;"/>
    </g>
    <g id="text_25">
     <!-- warezclient -->
     <g transform="translate(868.602574 519.270864)scale(0.1 -0.1)">
      <defs>
       <path d="M 353 3500 
L 3084 3500 
L 3084 2975 
L 922 459 
L 3084 459 
L 3084 0 
L 275 0 
L 275 525 
L 2438 3041 
L 353 3041 
L 353 3500 
z
" id="DejaVuSans-7a" transform="scale(0.015625)"/>
      </defs>
      <use xlink:href="#DejaVuSans-77"/>
      <use x="81.787109" xlink:href="#DejaVuSans-61"/>
      <use x="143.066406" xlink:href="#DejaVuSans-72"/>
      <use x="181.929688" xlink:href="#DejaVuSans-65"/>
      <use x="243.453125" xlink:href="#DejaVuSans-7a"/>
      <use x="295.943359" xlink:href="#DejaVuSans-63"/>
      <use x="350.923828" xlink:href="#DejaVuSans-6c"/>
      <use x="378.707031" xlink:href="#DejaVuSans-69"/>
      <use x="406.490234" xlink:href="#DejaVuSans-65"/>
      <use x="468.013672" xlink:href="#DejaVuSans-6e"/>
      <use x="531.392578" xlink:href="#DejaVuSans-74"/>
     </g>
    </g>
    <g id="patch_96">
     <path d="M 840.602574 533.948989 
L 860.602574 533.948989 
L 860.602574 526.948989 
L 840.602574 526.948989 
z
" style="fill:#2ca02c;"/>
    </g>
    <g id="text_26">
     <!-- warezmaster -->
     <g transform="translate(868.602574 533.948989)scale(0.1 -0.1)">
      <use xlink:href="#DejaVuSans-77"/>
      <use x="81.787109" xlink:href="#DejaVuSans-61"/>
      <use x="143.066406" xlink:href="#DejaVuSans-72"/>
      <use x="181.929688" xlink:href="#DejaVuSans-65"/>
      <use x="243.453125" xlink:href="#DejaVuSans-7a"/>
      <use x="295.943359" xlink:href="#DejaVuSans-6d"/>
      <use x="393.355469" xlink:href="#DejaVuSans-61"/>
      <use x="454.634766" xlink:href="#DejaVuSans-73"/>
      <use x="506.734375" xlink:href="#DejaVuSans-74"/>
      <use x="545.943359" xlink:href="#DejaVuSans-65"/>
      <use x="607.466797" xlink:href="#DejaVuSans-72"/>
     </g>
    </g>
   </g>
  </g>
  <g id="text_27">
   <!-- training nsl-kdd data -->
   <g transform="translate(383.939062 144)scale(0.3 -0.3)">
    <defs>
     <path id="DejaVuSans-20" transform="scale(0.015625)"/>
     <path d="M 313 2009 
L 1997 2009 
L 1997 1497 
L 313 1497 
L 313 2009 
z
" id="DejaVuSans-2d" transform="scale(0.015625)"/>
    </defs>
    <use xlink:href="#DejaVuSans-74"/>
    <use x="39.208984" xlink:href="#DejaVuSans-72"/>
    <use x="80.322266" xlink:href="#DejaVuSans-61"/>
    <use x="141.601562" xlink:href="#DejaVuSans-69"/>
    <use x="169.384766" xlink:href="#DejaVuSans-6e"/>
    <use x="232.763672" xlink:href="#DejaVuSans-69"/>
    <use x="260.546875" xlink:href="#DejaVuSans-6e"/>
    <use x="323.925781" xlink:href="#DejaVuSans-67"/>
    <use x="387.402344" xlink:href="#DejaVuSans-20"/>
    <use x="419.189453" xlink:href="#DejaVuSans-6e"/>
    <use x="482.568359" xlink:href="#DejaVuSans-73"/>
    <use x="534.667969" xlink:href="#DejaVuSans-6c"/>
    <use x="562.451172" xlink:href="#DejaVuSans-2d"/>
    <use x="598.535156" xlink:href="#DejaVuSans-6b"/>
    <use x="656.445312" xlink:href="#DejaVuSans-64"/>
    <use x="719.921875" xlink:href="#DejaVuSans-64"/>
    <use x="783.398438" xlink:href="#DejaVuSans-20"/>
    <use x="815.185547" xlink:href="#DejaVuSans-64"/>
    <use x="878.662109" xlink:href="#DejaVuSans-61"/>
    <use x="939.941406" xlink:href="#DejaVuSans-74"/>
    <use x="979.150391" xlink:href="#DejaVuSans-61"/>
   </g>
  </g>
 </g>
</svg>
