<svg xmlns="http://www.w3.org/2000/svg" xmlns:xlink="http://www.w3.org/1999/xlink" viewBox="0 0 2828.86 2792.56"><defs><style>.cls-1{isolation:isolate;}.cls-2,.cls-6{opacity:0.3;}.cls-2{fill:url(#linear-gradient);}.cls-3{fill:url(#linear-gradient-2);}.cls-13,.cls-21,.cls-23,.cls-4{fill:#fff;}.cls-4{mix-blend-mode:soft-light;}.cls-5{fill:url(#linear-gradient-3);}.cls-7{fill:url(#linear-gradient-4);}.cls-8{fill:url(#linear-gradient-5);}.cls-9{fill:url(#linear-gradient-6);}.cls-10{fill:url(#linear-gradient-7);}.cls-11{fill:url(#linear-gradient-8);}.cls-12{fill:url(#linear-gradient-9);}.cls-13{opacity:0.56;}.cls-14{fill:url(#linear-gradient-10);}.cls-15{fill:url(#linear-gradient-11);}.cls-16{fill:url(#linear-gradient-12);}.cls-17{fill:url(#linear-gradient-13);}.cls-18{fill:url(#linear-gradient-14);}.cls-19{fill:url(#linear-gradient-15);}.cls-20{fill:url(#linear-gradient-16);}.cls-22{fill:url(#linear-gradient-17);}.cls-23{opacity:0.44;}.cls-24{fill:url(#linear-gradient-18);}.cls-25{fill:url(#linear-gradient-19);}.cls-26{fill:url(#linear-gradient-20);}.cls-27{fill:url(#linear-gradient-21);}.cls-28{fill:url(#linear-gradient-22);}.cls-29{fill:url(#linear-gradient-23);}.cls-30{fill:url(#linear-gradient-24);}.cls-31{fill:url(#linear-gradient-25);}.cls-32{fill:url(#linear-gradient-26);}.cls-33{fill:url(#linear-gradient-27);}.cls-34{fill:url(#New_Gradient_Swatch_1);}.cls-35{fill:url(#linear-gradient-28);}.cls-36{fill:url(#linear-gradient-29);}.cls-37{fill:url(#linear-gradient-30);}.cls-38{fill:url(#linear-gradient-31);}.cls-39{fill:url(#New_Gradient_Swatch_1-2);}.cls-40{fill:url(#linear-gradient-32);}.cls-41{fill:url(#linear-gradient-33);}.cls-42{fill:url(#linear-gradient-34);}.cls-43{fill:url(#linear-gradient-35);}.cls-44{fill:url(#linear-gradient-36);}.cls-45{fill:url(#linear-gradient-37);}.cls-46{fill:url(#linear-gradient-38);}.cls-47{fill:url(#linear-gradient-39);}.cls-48{fill:url(#linear-gradient-40);}.cls-49{fill:url(#linear-gradient-41);}.cls-50{fill:url(#linear-gradient-42);}.cls-51{fill:url(#linear-gradient-43);}.cls-52{fill:url(#linear-gradient-44);}.cls-53{fill:url(#linear-gradient-45);}.cls-54{fill:#eeaa4e;}.cls-55{fill:url(#linear-gradient-46);}.cls-56{fill:#f8a570;}.cls-57{fill:url(#linear-gradient-47);}.cls-58{fill:url(#linear-gradient-48);}.cls-59{fill:url(#linear-gradient-49);}.cls-60{fill:url(#linear-gradient-50);}.cls-61{fill:url(#linear-gradient-51);}.cls-62{fill:url(#linear-gradient-52);}.cls-63{fill:url(#New_Gradient_Swatch_1-3);}.cls-64{fill:url(#linear-gradient-53);}</style><linearGradient id="linear-gradient" x1="3475.26" y1="3648.44" x2="1533.46" y2="1581.35" gradientUnits="userSpaceOnUse"><stop offset="0" stop-color="#b37cff"/><stop offset="1" stop-color="#f895e7"/></linearGradient><linearGradient id="linear-gradient-2" x1="3854.55" y1="1677.2" x2="5027.87" y2="1677.2" gradientTransform="matrix(-0.92, 0.38, 0.38, 0.92, 6416.8, -1929.64)" gradientUnits="userSpaceOnUse"><stop offset="0" stop-color="#a737d5"/><stop offset="1" stop-color="#ef497a"/></linearGradient><linearGradient id="linear-gradient-3" x1="-2613.4" y1="1328.45" x2="-1246.19" y2="1328.45" gradientTransform="matrix(-0.47, -0.89, -0.89, 0.47, 3217.13, -1031.82)" xlink:href="#linear-gradient-2"/><linearGradient id="linear-gradient-4" x1="1105" y1="742.82" x2="1670.5" y2="742.82" gradientTransform="matrix(0.99, 0.13, -0.13, 0.99, 53.51, -75.63)" xlink:href="#linear-gradient"/><linearGradient id="linear-gradient-5" x1="1697.99" y1="593.89" x2="1731.02" y2="593.89" gradientTransform="matrix(0.99, 0.13, -0.13, 0.99, 53.51, -75.63)" xlink:href="#linear-gradient"/><linearGradient id="linear-gradient-6" x1="1869.41" y1="846.26" x2="1892.07" y2="846.26" gradientTransform="matrix(0.99, 0.13, -0.13, 0.99, 53.51, -75.63)" xlink:href="#linear-gradient"/><linearGradient id="linear-gradient-7" x1="1314.43" y1="1104.04" x2="1896.91" y2="1104.04" gradientTransform="matrix(0.99, 0.13, -0.13, 0.99, 53.51, -75.63)" xlink:href="#linear-gradient"/><linearGradient id="linear-gradient-8" x1="1256.37" y1="1226.79" x2="1288.98" y2="1226.79" gradientTransform="matrix(0.99, 0.13, -0.13, 0.99, 53.51, -75.63)" xlink:href="#linear-gradient"/><linearGradient id="linear-gradient-9" x1="2843.7" y1="1501.82" x2="766.03" y2="589.68" gradientTransform="matrix(0.99, 0.13, -0.13, 0.99, 53.51, -75.63)" xlink:href="#linear-gradient-2"/><linearGradient id="linear-gradient-10" x1="768.61" y1="1213.79" x2="784.73" y2="1213.79" gradientTransform="matrix(0.99, 0.13, -0.13, 0.99, 53.51, -75.63)" xlink:href="#linear-gradient"/><linearGradient id="linear-gradient-11" x1="762.09" y1="1032.71" x2="1078" y2="1032.71" gradientTransform="matrix(0.99, 0.13, -0.13, 0.99, 53.51, -75.63)" xlink:href="#linear-gradient"/><linearGradient id="linear-gradient-12" x1="903.07" y1="1335.56" x2="1263.63" y2="1335.56" gradientTransform="matrix(0.99, 0.13, -0.13, 0.99, 53.51, -75.63)" xlink:href="#linear-gradient"/><linearGradient id="linear-gradient-13" x1="863.43" y1="1358.11" x2="888.09" y2="1358.11" gradientTransform="matrix(0.99, 0.13, -0.13, 0.99, 53.51, -75.63)" xlink:href="#linear-gradient"/><linearGradient id="linear-gradient-14" x1="2680.69" y1="1872.54" x2="603.02" y2="960.39" gradientTransform="matrix(0.99, 0.13, -0.13, 0.99, 53.51, -75.63)" xlink:href="#linear-gradient-2"/><linearGradient id="linear-gradient-15" x1="1857.71" y1="1326" x2="1823.15" y2="2922.73" gradientUnits="userSpaceOnUse"><stop offset="0" stop-color="#2b3582"/><stop offset="1" stop-color="#150e42"/></linearGradient><linearGradient id="linear-gradient-16" x1="1841.82" y1="1461.42" x2="1862.56" y2="3503.89" gradientUnits="userSpaceOnUse"><stop offset="0" stop-color="#53d8ff"/><stop offset="1" stop-color="#3840f7"/></linearGradient><linearGradient id="linear-gradient-17" x1="1871.62" y1="2782.51" x2="2080.53" y2="1915.5" gradientTransform="translate(3676.29 5842.82) rotate(-180)" xlink:href="#linear-gradient-15"/><linearGradient id="linear-gradient-18" x1="1532.26" y1="878.57" x2="2195.82" y2="2507.32" gradientUnits="userSpaceOnUse"><stop offset="0" stop-color="#cb236d"/><stop offset="1" stop-color="#4c246d"/></linearGradient><linearGradient id="linear-gradient-19" x1="1609.03" y1="1074.83" x2="2149.48" y2="2401.38" xlink:href="#linear-gradient-16"/><linearGradient id="linear-gradient-20" x1="1860.22" y1="1501.55" x2="1922.28" y2="2155.25" gradientUnits="userSpaceOnUse"><stop offset="0" stop-color="#fdf53f"/><stop offset="1" stop-color="#d93c65"/></linearGradient><linearGradient id="linear-gradient-21" x1="1842.15" y1="1824.13" x2="2002.56" y2="2591.28" xlink:href="#linear-gradient-20"/><linearGradient id="linear-gradient-22" x1="1977.97" y1="1979.13" x2="1804.19" y2="2206.67" xlink:href="#linear-gradient-18"/><linearGradient id="linear-gradient-23" x1="18273.27" y1="1282.36" x2="17935.36" y2="1475.23" gradientTransform="matrix(-1, 0, 0, 1, 20496.28, 0)" gradientUnits="userSpaceOnUse"><stop offset="0" stop-color="#f9b776"/><stop offset="1" stop-color="#f47960"/></linearGradient><linearGradient id="linear-gradient-24" x1="-7714.69" y1="-4557.24" x2="-7740.63" y2="-4159.5" gradientTransform="translate(11201 2161.15) rotate(-26.18)" xlink:href="#linear-gradient-18"/><linearGradient id="linear-gradient-25" x1="18240.58" y1="1330.46" x2="19396.72" y2="606.7" xlink:href="#linear-gradient-23"/><linearGradient id="linear-gradient-26" x1="-6026.84" y1="-6736.49" x2="-6052.77" y2="-6338.78" gradientTransform="matrix(0.79, -0.61, 0.61, 0.79, 11218.59, 3191.1)" xlink:href="#linear-gradient-18"/><linearGradient id="linear-gradient-27" x1="10125.06" y1="1040.19" x2="9847.14" y2="1344.75" gradientTransform="matrix(-1, 0, 0, 1, 12664.58, 0)" xlink:href="#linear-gradient-16"/><linearGradient id="New_Gradient_Swatch_1" x1="2383.52" y1="1025.73" x2="1995.84" y2="708.54" gradientTransform="translate(548.71)" xlink:href="#linear-gradient-15"/><linearGradient id="linear-gradient-28" x1="17887.17" y1="914.04" x2="17090.61" y2="1682.41" gradientTransform="matrix(-1, 0, 0, 1, 20496.28, 0)" xlink:href="#linear-gradient-20"/><linearGradient id="linear-gradient-29" x1="-9284.98" y1="1171.19" x2="-8948.37" y2="1171.19" gradientTransform="translate(12099.82)" xlink:href="#linear-gradient-23"/><linearGradient id="linear-gradient-30" x1="-11124.51" y1="107.95" x2="-11108.06" y2="-12.43" gradientTransform="translate(13765.69 105.01) rotate(-4.11)" xlink:href="#linear-gradient-23"/><linearGradient id="linear-gradient-31" x1="-9106.4" y1="-4400.44" x2="-8951.47" y2="-4676.16" gradientTransform="translate(11346.7 -4320.77) rotate(-56.92)" xlink:href="#linear-gradient-23"/><linearGradient id="New_Gradient_Swatch_1-2" x1="2390.09" y1="1017.7" x2="2002.41" y2="700.51" gradientTransform="translate(548.71)" xlink:href="#linear-gradient-15"/><linearGradient id="linear-gradient-32" x1="-9069.87" y1="-4376.46" x2="-8914.94" y2="-4652.18" gradientTransform="translate(11346.7 -4320.77) rotate(-56.92)" xlink:href="#linear-gradient-23"/><linearGradient id="linear-gradient-33" x1="-9307.83" y1="763.44" x2="-9483.91" y2="811.7" gradientTransform="translate(12058.35 -55.03) rotate(-2.83)" xlink:href="#linear-gradient-15"/><linearGradient id="linear-gradient-34" x1="1793.68" y1="1138.95" x2="3377.4" y2="1005.71" gradientTransform="translate(548.71)" xlink:href="#linear-gradient-15"/><linearGradient id="linear-gradient-35" x1="-9614.27" y1="1086.43" x2="-9670.96" y2="1171.8" gradientTransform="translate(12099.82)" xlink:href="#linear-gradient-16"/><linearGradient id="linear-gradient-36" x1="-4229.2" y1="3191.55" x2="-4063.64" y2="3191.55" gradientTransform="translate(5088.22)" xlink:href="#linear-gradient-16"/><linearGradient id="linear-gradient-37" x1="-4229.21" y1="3159.1" x2="-4068.32" y2="3159.1" gradientTransform="translate(5088.22)" xlink:href="#linear-gradient-15"/><linearGradient id="linear-gradient-38" x1="-4213.92" y1="3113.8" x2="-4167.28" y2="3113.8" gradientTransform="translate(5088.22)" xlink:href="#linear-gradient-23"/><linearGradient id="linear-gradient-39" x1="-4524.7" y1="3232.6" x2="-4461.26" y2="3232.6" gradientTransform="translate(5088.22)" xlink:href="#linear-gradient-16"/><linearGradient id="linear-gradient-40" x1="-4524.24" y1="3169.46" x2="-4431.12" y2="3169.46" gradientTransform="translate(5088.22)" xlink:href="#linear-gradient-15"/><linearGradient id="linear-gradient-41" x1="-4475.84" y1="3089.48" x2="-4420.1" y2="3089.48" gradientTransform="translate(5088.22)" xlink:href="#linear-gradient-23"/><linearGradient id="linear-gradient-42" x1="-4025.04" y1="2488.05" x2="-4500.87" y2="3267.51" gradientTransform="translate(5088.22)" xlink:href="#linear-gradient-18"/><linearGradient id="linear-gradient-43" x1="-4175.03" y1="2632.67" x2="-4130.59" y2="2545.54" gradientTransform="translate(5088.22)" xlink:href="#linear-gradient-2"/><linearGradient id="linear-gradient-44" x1="-3709.25" y1="1915.52" x2="-3929.99" y2="2202.69" gradientTransform="translate(5088.22)" xlink:href="#linear-gradient-23"/><linearGradient id="linear-gradient-45" x1="-3971.11" y1="1982.79" x2="-4708.06" y2="2856.21" gradientTransform="translate(5088.22)" xlink:href="#linear-gradient-20"/><linearGradient id="linear-gradient-46" x1="-4201.27" y1="2101.12" x2="-4177.12" y2="1974.34" gradientTransform="translate(5088.22)" xlink:href="#linear-gradient-23"/><linearGradient id="linear-gradient-47" x1="-4098.38" y1="2238.67" x2="-4177.44" y2="2357.27" gradientTransform="translate(5088.22)" xlink:href="#linear-gradient-23"/><linearGradient id="linear-gradient-48" x1="784.22" y1="2257.83" x2="706.75" y2="2374.03" gradientTransform="matrix(-1, 0, 0, 1, 1616.33, 0)" xlink:href="#linear-gradient-23"/><linearGradient id="linear-gradient-49" x1="1730.11" y1="2504.49" x2="1512.25" y2="2564.2" gradientTransform="matrix(-1, -0.05, -0.05, 1, 2706.95, -55.03)" xlink:href="#linear-gradient-15"/><linearGradient id="linear-gradient-50" x1="1514.84" y1="2221.96" x2="1361.17" y2="2384.39" gradientTransform="matrix(-1, 0, 0, 1, 2665.48, 0)" xlink:href="#linear-gradient-15"/><linearGradient id="linear-gradient-51" x1="1421.66" y1="2262.56" x2="1352.19" y2="2367.17" gradientTransform="matrix(-1, 0, 0, 1, 2665.48, 0)" xlink:href="#linear-gradient-16"/><linearGradient id="linear-gradient-52" x1="1946.41" y1="2191.84" x2="1800.92" y2="2384.32" gradientTransform="translate(-1871.24 996.94) rotate(-31.95)" xlink:href="#linear-gradient-23"/><linearGradient id="New_Gradient_Swatch_1-3" x1="1835.29" y1="2238.27" x2="2009.09" y2="2238.27" gradientTransform="translate(-1871.24 996.94) rotate(-31.95)" xlink:href="#linear-gradient-15"/><linearGradient id="linear-gradient-53" x1="1733.32" y1="2344.27" x2="1850.02" y2="2224.54" gradientTransform="translate(-1871.24 996.94) rotate(-31.95)" xlink:href="#linear-gradient-23"/></defs><g class="cls-1"><g id="Illustration"><path class="cls-2" d="M2901.42,2811c-72.33,73.3-137,116.4-186.59,148.93-483.22,317.27-1035.6,225.83-1206.38,194.57-275.54-50.43-508.12-86-708-263.54-454.09-403.41-432-1244.95-85-1766.26,41.14-61.81,387.59-566.8,941.16-638,13.54-1.74,23.64-2.73,32.49-3.65,85.64-8.92,616.31-56,1049,300.51,61.94,51,161.62,143.07,254.06,283.45C3330.18,1580.33,3331.25,2375.31,2901.42,2811Z" transform="translate(-440.57 -455)"/><path class="cls-3" d="M3235.78,470.52c2.91-12.37-14.49-20.59-25.14-11.95-108.2,87.74-368.16,350.47-303.37,809.61,81.28,576.05-57.69,786.25-230.67,914.47,0,0,237.56-60.3,387-273.59C3430.59,1385.38,3184.12,690.46,3235.78,470.52Z" transform="translate(-440.57 -455)"/><path class="cls-4" d="M3153.45,650.45c-13.54,64.13-25.6,128.46-34.93,193.07q-14.57,96.84-22.25,194.24c-4.8,64.91-8.19,129.88-8.39,194.88-.53,65,2.17,129.94,5.15,195.13,2.55,65.18,5.56,130.82.79,196.93s-18.58,132.52-46.14,194.9c-6.89,15.55-14.13,31.05-22.36,46-7.91,15.11-16.6,29.93-25.59,44.61a703.93,703.93,0,0,1-61.38,84.42c-45.72,53.62-100.86,101.18-161.6,141.43-6.39,4.24-15.55,3.19-20.46-2.33s-3.74-13.14,2.35-17.43l0,0c14.46-10.15,28.76-20.43,42.48-31.23,7-5.31,13.64-10.87,20.43-16.31,6.55-5.67,13.35-11.12,19.68-17a698.74,698.74,0,0,0,71.37-73.35c43.61-51.55,78.52-109,105-168.56a569.26,569.26,0,0,0,30.6-91.86A626.83,626.83,0,0,0,3063,1622.9c5.2-64.16,2.85-129.15.84-194.34s-3.32-130.73-1.6-196.21q1.14-49.11,4.31-98.15c.95-16.34,2.27-32.67,3.55-49q2.19-24.46,4.75-48.91,10.55-97.74,28-194.71c12-64.55,26.07-128.81,42.94-192.49a4,4,0,0,1,4.69-2.54A3.43,3.43,0,0,1,3153.45,650.45Z" transform="translate(-440.57 -455)"/><path class="cls-5" d="M2897.91,2053.45c12.41,20,41.17,20.75,54.91,1.69,75.83-105.17,263.34-421.92,146.69-854C3001,836.17,2982.25,628.93,2980.26,534.27c-.42-20-26.15-27.87-37.7-11.51C2815.13,703.2,2448.19,1330.42,2897.91,2053.45Z" transform="translate(-440.57 -455)"/><path class="cls-4" d="M2929.07,2047a8.85,8.85,0,0,0,1.71.49,9.18,9.18,0,0,0,10.7-7.34c1.05-5.64,103.8-570.57-10.26-1084.15a9.17,9.17,0,0,0-17.91,4c113.22,509.85,11.17,1071.21,10.13,1076.82A9.16,9.16,0,0,0,2929.07,2047Z" transform="translate(-440.57 -455)"/><g class="cls-6"><path class="cls-7" d="M1030.94,1031.41a9.91,9.91,0,0,1-8.57-10.12c.33-11.19,1.16-22.54,2.46-33.72a9.92,9.92,0,0,1,11-8.71l.19,0a9.9,9.9,0,0,1,8.51,11c-1.23,10.62-2,21.4-2.33,32a9.93,9.93,0,0,1-10.21,9.61A8.93,8.93,0,0,1,1030.94,1031.41Zm12.21-85.5a9.51,9.51,0,0,1-1.16-.23,9.92,9.92,0,0,1-7.13-12.07c2.81-10.89,6.11-21.77,9.81-32.34a9.91,9.91,0,1,1,18.71,6.56c-3.51,10-6.65,20.38-9.32,30.73A9.91,9.91,0,0,1,1043.15,945.91Zm30.73-80.69a9.93,9.93,0,0,1-7.48-14.38c5.15-10,10.79-19.84,16.78-29.34A9.92,9.92,0,0,1,1100,832.07c-5.69,9-11,18.4-15.94,27.87A9.93,9.93,0,0,1,1073.88,865.22Zm48-71.81a9.92,9.92,0,0,1-6.23-16.23c7.26-8.57,15-16.93,22.93-24.85a9.91,9.91,0,1,1,14,14c-7.55,7.52-14.88,15.46-21.77,23.61A9.89,9.89,0,0,1,1121.89,793.41Zm62.82-59.29a9.92,9.92,0,0,1-4.63-17.75c9-6.73,18.33-13.18,27.85-19.15A9.91,9.91,0,1,1,1218.47,714c-9.06,5.68-18,11.81-26.47,18.21A9.88,9.88,0,0,1,1184.71,734.12Zm74.37-43.92a9.91,9.91,0,0,1-2.74-18.87c10.24-4.6,20.8-8.81,31.39-12.52a9.92,9.92,0,1,1,6.56,18.72c-10.07,3.52-20.1,7.52-29.83,11.89A9.83,9.83,0,0,1,1259.08,690.2Zm363.18,25.3a9.79,9.79,0,0,1-3.94-1.43c-9-5.67-18.41-11-27.9-15.89a9.92,9.92,0,0,1,9.06-17.64c10,5.14,19.89,10.77,29.39,16.74a9.92,9.92,0,0,1-6.61,18.22Zm-281-51.63a9.92,9.92,0,0,1-.62-19.55c11-2.2,22.24-4,33.39-5.2a9.91,9.91,0,1,1,2.21,19.7c-10.59,1.19-21.26,2.85-31.71,4.94A9.76,9.76,0,0,1,1341.28,663.87Zm203.14,14.23a9.88,9.88,0,0,1-2-.47c-10.06-3.5-20.41-6.62-30.76-9.26a9.92,9.92,0,0,1,4.91-19.22c10.89,2.79,21.78,6.07,32.37,9.76a9.91,9.91,0,0,1-4.57,19.19Zm-117.13-21.54a9.91,9.91,0,0,1,1.62-19.73c11.21.32,22.55,1.12,33.72,2.39l.21,0a9.91,9.91,0,0,1-2.46,19.67c-10.6-1.21-21.38-2-32-2.27A9.45,9.45,0,0,1,1427.29,656.56Z" transform="translate(-440.57 -455)"/><path class="cls-8" d="M1677.61,757.72a9.86,9.86,0,0,1-5.36-2.51c-3.76-3.46-7.67-6.89-11.59-10.21a9.91,9.91,0,1,1,12.79-15.15c4.13,3.49,8.24,7.1,12.2,10.74a9.91,9.91,0,0,1-8,17.13Z" transform="translate(-440.57 -455)"/></g><g class="cls-6"><path class="cls-9" d="M1802.94,1032.78a9.92,9.92,0,0,1-8.57-9.58c-.13-5.11-.36-10.31-.7-15.44a9.92,9.92,0,0,1,19.79-1.3c.35,5.4.6,10.87.73,16.25a9.91,9.91,0,0,1-9.67,10.16A10.39,10.39,0,0,1,1802.94,1032.78Z" transform="translate(-440.57 -455)"/><path class="cls-10" d="M1365.56,1425.2q-6.78-.92-13.58-2.07a9.91,9.91,0,1,1,3.32-19.55c10.46,1.77,21,3.12,31.35,4a9.92,9.92,0,1,1-1.69,19.76C1378.54,1426.8,1372,1426.08,1365.56,1425.2Zm-64.47-14.33a10.87,10.87,0,0,1-1.65-.37c-10.55-3.31-21.08-7.1-31.3-11.27a9.92,9.92,0,1,1,7.5-18.36c9.7,4,19.71,7.57,29.74,10.71a9.92,9.92,0,0,1-4.29,19.29Zm136,17.31a9.91,9.91,0,0,1,.83-19.72c10.46-.54,21-1.54,31.45-3a9.92,9.92,0,1,1,2.69,19.65c-11,1.5-22.1,2.55-33.12,3.12A10.3,10.3,0,0,1,1437.13,1428.18Zm-213.87-51.52a9.88,9.88,0,0,1-3.63-1.25c-9.57-5.54-19-11.56-28.06-17.88a9.91,9.91,0,0,1,11.35-16.25c8.6,6,17.57,11.72,26.65,17a9.91,9.91,0,0,1-6.31,18.4ZM1521,1414.43a9.91,9.91,0,0,1-1.35-19.37c10.08-2.83,20.18-6.13,30-9.81a9.91,9.91,0,1,1,6.94,18.57c-10.36,3.88-21,7.35-31.61,10.33A9.92,9.92,0,0,1,1521,1414.43Zm78.78-31.81a9.92,9.92,0,0,1-3.38-18.56c9.24-5,18.39-10.4,27.18-16.12a9.91,9.91,0,0,1,10.82,16.61c-9.25,6-18.87,11.73-28.6,17A9.89,9.89,0,0,1,1599.73,1382.62Zm70-48.23a9.92,9.92,0,0,1-5.15-17.32c8-6.88,15.69-14.17,23-21.66a9.91,9.91,0,1,1,14.18,13.86c-7.71,7.88-15.86,15.56-24.23,22.79A9.86,9.86,0,0,1,1669.69,1334.39Zm57.78-62.34a9.91,9.91,0,0,1-6.63-15.72c6.25-8.44,12.21-17.25,17.71-26.17a9.91,9.91,0,0,1,16.88,10.4c-5.8,9.4-12.07,18.68-18.65,27.56A9.9,9.9,0,0,1,1727.47,1272.05Zm42.71-73.53a10.14,10.14,0,0,1-2.68-.75,9.91,9.91,0,0,1-5.07-13.07c4.22-9.59,8.09-19.49,11.5-29.42a9.91,9.91,0,1,1,18.75,6.44c-3.59,10.45-7.66,20.87-12.11,31A9.9,9.9,0,0,1,1770.18,1198.52Zm25.48-81.06c-.2,0-.4-.06-.6-.1a9.91,9.91,0,0,1-7.8-11.65c1.5-7.58,2.78-15.3,3.82-22.94q.56-4.15,1-8.29a9.91,9.91,0,0,1,11-8.74,9.81,9.81,0,0,1,8.74,11c-.33,2.91-.69,5.81-1.08,8.73-1.09,8-2.44,16.16-4,24.13A9.91,9.91,0,0,1,1795.66,1117.46Z" transform="translate(-440.57 -455)"/><path class="cls-11" d="M1154.71,1326a9.85,9.85,0,0,1-5.4-2.54c-3.94-3.65-7.88-7.45-11.7-11.3a9.91,9.91,0,1,1,14.06-14c3.63,3.66,7.37,7.26,11.11,10.73a9.91,9.91,0,0,1-8.07,17.09Z" transform="translate(-440.57 -455)"/></g><path class="cls-12" d="M1183.38,1213.83a4.63,4.63,0,0,0,4.95,2.1l55.06-12.19a245.93,245.93,0,0,0,64.39,46.79l5.44,56.1a4.63,4.63,0,0,0,3.53,4l65.78,15.78a4.65,4.65,0,0,0,5-2l30.29-47.53a245.57,245.57,0,0,0,78.61-12.5l43.54,35.85a4.65,4.65,0,0,0,5.37.37l57.67-35.36a4.63,4.63,0,0,0,2.1-5l-12.19-55.06a245.93,245.93,0,0,0,46.79-64.39l56.1-5.44a4.63,4.63,0,0,0,4-3.53l15.78-65.78a4.63,4.63,0,0,0-2-5l-47.52-30.29a245.57,245.57,0,0,0-12.5-78.61l35.85-43.54a4.65,4.65,0,0,0,.37-5.37l-35.36-57.67a4.62,4.62,0,0,0-5-2.1l-55.06,12.19A245.93,245.93,0,0,0,1530.05,809l-5.44-56.1a4.63,4.63,0,0,0-3.53-4.05L1455.3,733a4.64,4.64,0,0,0-5,2L1420,782.57a245.56,245.56,0,0,0-78.6,12.5l-43.54-35.85a4.66,4.66,0,0,0-5.37-.37l-57.67,35.36a4.62,4.62,0,0,0-2.1,4.95l12.19,55.06a245.93,245.93,0,0,0-46.79,64.39l-56.1,5.44a4.64,4.64,0,0,0-4.06,3.53l-15.77,65.78a4.64,4.64,0,0,0,2,5l47.53,30.29a245.57,245.57,0,0,0,12.5,78.61l-35.85,43.54a4.65,4.65,0,0,0-.37,5.37Z" transform="translate(-440.57 -455)"/><path class="cls-13" d="M1409.75,1097.13a68,68,0,1,1,10,.61A68.11,68.11,0,0,1,1409.75,1097.13Zm16.26-119a52.14,52.14,0,1,0,29.33,14.35A52,52,0,0,0,1426,978.09Z" transform="translate(-440.57 -455)"/><path class="cls-13" d="M1398,1194.64a168.22,168.22,0,0,1-16.89-3.16h0q-2.65-.63-5.28-1.35a168.4,168.4,0,0,1-25.18-9.11l-.33-.15-.94-.44-1.82-.86a4,4,0,0,1-2.21-4.1,3.79,3.79,0,0,1,.36-1.19,4,4,0,0,1,5.29-1.86,159.38,159.38,0,0,0,179.88-29.16A158.3,158.3,0,0,0,1575,1066a161.13,161.13,0,0,0,3-16.11A159.31,159.31,0,0,0,1457.22,874c-85.44-20.48-171.54,32.34-192,117.73a160.71,160.71,0,0,0-3,15.91,158.77,158.77,0,0,0,5.85,68.88,3.89,3.89,0,0,1,.14,1.72,4,4,0,0,1-7.71.66,167.33,167.33,0,0,1-3-89c21.5-89.65,112-145.09,201.58-123.59A167.25,167.25,0,0,1,1585.83,1051c-.77,5.64-1.82,11.29-3.17,16.91A167.23,167.23,0,0,1,1398,1194.64Z" transform="translate(-440.57 -455)"/><g class="cls-6"><path class="cls-14" d="M660.64,1245a6.12,6.12,0,0,1-5.23-5.14c-.78-5.14-1.42-10.38-1.89-15.56a6.13,6.13,0,0,1,12.2-1.11c.45,4.94,1,9.92,1.8,14.83a6.12,6.12,0,0,1-5.13,7A6,6,0,0,1,660.64,1245Z" transform="translate(-440.57 -455)"/><path class="cls-15" d="M657.86,1198a6.11,6.11,0,0,1-5.29-6.26,265.08,265.08,0,0,1,2.25-26.85q.38-2.8.82-5.61a6.33,6.33,0,0,1,7-5.1,6.12,6.12,0,0,1,5.11,7c-.28,1.79-.55,3.58-.79,5.36-1.14,8.46-1.86,17.07-2.15,25.61a6.05,6.05,0,0,1-6.94,5.86Zm9.85-62.81a6.58,6.58,0,0,1-.86-.18,6.12,6.12,0,0,1-4.21-7.57,265.4,265.4,0,0,1,10.82-30.74,6.13,6.13,0,0,1,11.28,4.78,255.39,255.39,0,0,0-10.33,29.32A6.12,6.12,0,0,1,667.71,1135.14Zm24.79-58.55a6,6,0,0,1-2.24-.76,6.12,6.12,0,0,1-2.23-8.37,262.79,262.79,0,0,1,18.06-27.16,6.12,6.12,0,0,1,9.76,7.4,250.8,250.8,0,0,0-17.22,25.9A6.13,6.13,0,0,1,692.5,1076.59Zm38.43-50.66a6.12,6.12,0,0,1-3.56-10.34,266.1,266.1,0,0,1,24.15-21.9,6.13,6.13,0,1,1,7.65,9.57,254,254,0,0,0-23,20.88A6.12,6.12,0,0,1,730.93,1025.93Zm49.63-39.74a6.12,6.12,0,0,1-2.39-11.28,268.46,268.46,0,0,1,28.73-15.37A6.12,6.12,0,1,1,812,970.67a254.74,254.74,0,0,0-27.41,14.67A6.1,6.1,0,0,1,780.56,986.19Zm57.77-26.48a6.13,6.13,0,0,1-1-11.91,263.1,263.1,0,0,1,31.61-7.89,6.12,6.12,0,1,1,2.22,12A250.83,250.83,0,0,0,841,959.48,6.11,6.11,0,0,1,838.33,959.71Zm62.47-11.56a6.12,6.12,0,0,1,.47-12.18,266.65,266.65,0,0,1,32.6.1,6.13,6.13,0,0,1-.79,12.23,252,252,0,0,0-31.09-.1A5.9,5.9,0,0,1,900.8,948.15Zm94.32,12a6.62,6.62,0,0,1-1-.24A253.64,253.64,0,0,0,967.91,953c-1.34-.28-2.66-.55-4-.79a6.12,6.12,0,0,1-4.88-7.15,6.06,6.06,0,0,1,7.15-4.89c1.41.27,2.81.54,4.21.84a266.11,266.11,0,0,1,27.39,7.19,6.12,6.12,0,0,1-2.68,11.9Z" transform="translate(-440.57 -455)"/></g><g class="cls-6"><path class="cls-16" d="M885.06,1462.59a6.13,6.13,0,0,1,1.56-12.15,251.67,251.67,0,0,0,30.52,1.87,6.13,6.13,0,0,1,0,12.25,265.83,265.83,0,0,1-32-2Zm-30.81-5.66c-.22,0-.44-.07-.65-.12a267.22,267.22,0,0,1-30.62-9.52,6.13,6.13,0,0,1,4.33-11.46,257.07,257.07,0,0,0,29.21,9.09,6.12,6.12,0,0,1-2.27,12Zm93.33,5.67a6.12,6.12,0,0,1,.08-12.14,256.32,256.32,0,0,0,30.07-5.58,6.13,6.13,0,0,1,3,11.89,266.33,266.33,0,0,1-31.53,5.84A6.42,6.42,0,0,1,947.58,1462.6Zm-151.83-27.83a6.33,6.33,0,0,1-2-.65,265.56,265.56,0,0,1-27.43-16.64,6.13,6.13,0,0,1,7-10.07,251.07,251.07,0,0,0,26.15,15.87,6.12,6.12,0,0,1-3.67,11.49Zm212.5,12.72a6.13,6.13,0,0,1-1.37-11.79,250.51,250.51,0,0,0,27.84-12.63,6.13,6.13,0,1,1,5.73,10.83,267.94,267.94,0,0,1-29.2,13.25A6,6,0,0,1,1008.25,1447.49Zm55.27-29.21a6.12,6.12,0,0,1-2.67-11.1,257.55,257.55,0,0,0,24-18.93,6.12,6.12,0,1,1,8.15,9.14,270.19,270.19,0,0,1-25.18,19.85A6.15,6.15,0,0,1,1063.52,1418.28Zm46.69-41.63a6,6,0,0,1-3.22-1.47,6.12,6.12,0,0,1-.55-8.64,251.08,251.08,0,0,0,18.78-24.15,6.13,6.13,0,0,1,10.11,6.92,265.2,265.2,0,0,1-19.7,25.33A6.11,6.11,0,0,1,1110.21,1376.65Z" transform="translate(-440.57 -455)"/><path class="cls-17" d="M744.13,1398.93a6,6,0,0,1-3.26-1.5c-3.91-3.49-7.73-7.11-11.36-10.77a6.12,6.12,0,1,1,8.68-8.63c3.47,3.48,7.12,6.94,10.84,10.27a6.12,6.12,0,0,1-4.9,10.63Z" transform="translate(-440.57 -455)"/></g><path class="cls-18" d="M759.77,1321.23a3.11,3.11,0,0,0,3.32,1.4l36.84-8.16A164.38,164.38,0,0,0,843,1345.78l3.64,37.54A3.09,3.09,0,0,0,849,1386l44,10.55a3.11,3.11,0,0,0,3.34-1.34l20.27-31.81a164.39,164.39,0,0,0,52.6-8.36l29.13,24a3.1,3.1,0,0,0,3.59.25l38.59-23.66a3.11,3.11,0,0,0,1.41-3.32l-8.16-36.84a164.38,164.38,0,0,0,31.31-43.09l37.54-3.64a3.11,3.11,0,0,0,2.72-2.36l10.55-44a3.09,3.09,0,0,0-1.35-3.34l-31.8-20.27a164.35,164.35,0,0,0-8.36-52.6l24-29.13a3.1,3.1,0,0,0,.25-3.59l-23.66-38.6a3.1,3.1,0,0,0-3.31-1.4l-36.85,8.16a164.16,164.16,0,0,0-43.08-31.31l-3.64-37.54a3.11,3.11,0,0,0-2.36-2.72l-44-10.55a3.1,3.1,0,0,0-3.34,1.34l-20.27,31.81a164.35,164.35,0,0,0-52.6,8.36l-29.14-24a3.1,3.1,0,0,0-3.59-.25l-38.59,23.66a3.12,3.12,0,0,0-1.4,3.32l8.16,36.84a164.64,164.64,0,0,0-31.32,43.09l-37.53,3.64a3.11,3.11,0,0,0-2.72,2.36l-10.56,44a3.12,3.12,0,0,0,1.35,3.34L752,1197.31a164.11,164.11,0,0,0,8.36,52.6l-24,29.13a3.12,3.12,0,0,0-.25,3.6Z" transform="translate(-440.57 -455)"/><path class="cls-13" d="M911.08,1243.94a46.41,46.41,0,1,1,6.85.42A48.65,48.65,0,0,1,911.08,1243.94ZM922,1164.28a35.76,35.76,0,0,0-5-.31,34.07,34.07,0,1,0,.81,68.14h0a34.07,34.07,0,0,0,4.18-67.83Z" transform="translate(-440.57 -455)"/><path class="cls-13" d="M902.79,1311.8a116.74,116.74,0,0,1-11.53-2.16,114.93,114.93,0,0,1-22.19-7.76l-1-.45a6.12,6.12,0,0,1-3.42-6.34,5.84,5.84,0,0,1,.55-1.83,6.13,6.13,0,0,1,8.17-2.87,103.28,103.28,0,0,0,20.69,7.34h0l1.18.28a102,102,0,0,0,50.48-1.15,103.56,103.56,0,0,0,25.48-11l.2-.12.6-.37a102.4,102.4,0,0,0,46.37-63.85,104.49,104.49,0,0,0,2-10.43,103.11,103.11,0,0,0-202.47-37.66,104.59,104.59,0,0,0-1.93,10.29,102.84,102.84,0,0,0,3.79,44.6A6,6,0,0,1,820,1231a6.13,6.13,0,0,1-11.92,1,115.36,115.36,0,0,1-4.24-49.9,116.54,116.54,0,0,1,2.16-11.51,115.36,115.36,0,0,1,226.52,42.13,115.44,115.44,0,0,1-129.72,99.09Z" transform="translate(-440.57 -455)"/><path class="cls-19" d="M586.89,2821.09a45.44,45.44,0,0,0,45.33,45.28H3083.06a45.44,45.44,0,0,0,45.32-45.28l20.39-1408.43c0-24.9-29.34-73.52-83.11-69.87l-2395.23-62a114.19,114.19,0,0,0-117.19,116.81Z" transform="translate(-440.57 -455)"/><path class="cls-20" d="M631.64,2777.65a43,43,0,0,0,42.88,42.88H3024a43,43,0,0,0,42.88-42.88l19.24-1278.59c-2.26-76.94-69.72-104.59-110.61-103L679.85,1334.51a80.27,80.27,0,0,0-82.35,82.14Z" transform="translate(-440.57 -455)"/><path class="cls-21" d="M3041.44,2170.23h-.09a6.27,6.27,0,0,1-6.19-6.38l1.52-103.69A6.29,6.29,0,0,1,3043,2054h.09a6.28,6.28,0,0,1,6.19,6.38L3047.72,2164A6.28,6.28,0,0,1,3041.44,2170.23Z" transform="translate(-440.57 -455)"/><path class="cls-21" d="M3045.17,1916.14h-.09a6.29,6.29,0,0,1-6.19-6.38l5.83-397.14c-.11-23.59-7.27-42.43-21.28-55.86-26.17-25.06-67.7-23.78-69.45-23.7l-733.73-19.67a6.28,6.28,0,0,1-6.11-6.45,6,6,0,0,1,6.45-6.11l733.29,19.67c4.57-.27,48.79-1,78.24,27.19,16.57,15.87,25,37.74,25.16,65l-5.84,397.26A6.29,6.29,0,0,1,3045.17,1916.14Z" transform="translate(-440.57 -455)"/><rect class="cls-22" x="440.57" y="2859.54" width="2795.16" height="123.75" rx="5.65" transform="translate(3235.73 5387.82) rotate(180)"/><path class="cls-23" d="M2917.57,1854.1H740.44c-34.49,0-62.45-26.89-62.45-60V1504.44c0-33.51,28.53-60.54,63.37-60l2177.13,30.9c34.12.49,61.52,27.22,61.52,60v258.71C2980,1827.21,2952.06,1854.1,2917.57,1854.1Z" transform="translate(-440.57 -455)"/><rect class="cls-23" x="261.33" y="1461.14" width="2278.11" height="547.36" rx="16.75"/><rect class="cls-23" x="261.33" y="2076.79" width="2278.11" height="235.2" rx="8.36"/><path class="cls-24" d="M2641.54,1519.14a145.55,145.55,0,0,0-82.89-122l-617.73-293.38a145.73,145.73,0,0,0-125,0l-617.73,293.38a145.58,145.58,0,0,0-82.9,122c-57.94,895.66,516.35,1222,704.6,1304.44a145.89,145.89,0,0,0,117.09,0C2125.2,2741.14,2699.49,2414.8,2641.54,1519.14Z" transform="translate(-440.57 -455)"/><path class="cls-21" d="M1691.55,1233.43a14.81,14.81,0,0,1-6.37-28.19l146-69.32a14.81,14.81,0,0,1,12.71,26.75l-146,69.32A14.65,14.65,0,0,1,1691.55,1233.43Z" transform="translate(-440.57 -455)"/><path class="cls-21" d="M1162.49,1716.86a14.81,14.81,0,0,1-14.79-14.32c-2-58.44-.94-119.37,3.06-181.1a110,110,0,0,1,62.65-92.14L1629,1231.94a14.81,14.81,0,1,1,12.71,26.75l-415.56,197.37a80.37,80.37,0,0,0-45.81,67.29c-3.93,60.77-5,120.72-3,178.2a14.82,14.82,0,0,1-14.31,15.3Z" transform="translate(-440.57 -455)"/><path class="cls-25" d="M2492.16,1554.1a36.39,36.39,0,0,0-20.71-31L1894,1248.83a36.26,36.26,0,0,0-31.16,0l-577.48,274.26a36.42,36.42,0,0,0-20.71,31c-17.07,334.11,60.1,612.88,229.54,828.94,129.19,164.73,280.3,253,368.86,294.19a36.39,36.39,0,0,0,30.74,0c88.55-41.18,239.67-129.46,368.86-294.19C2432.07,2167,2509.24,1888.21,2492.16,1554.1Z" transform="translate(-440.57 -455)"/><path class="cls-26" d="M1707.66,1913.07H1650.1V1683.71A178.56,178.56,0,0,1,1807,1506.63l117.68-14.3a178.38,178.38,0,0,1,199.9,177.08v200.23H2067V1669.41a120.83,120.83,0,0,0-135.41-120l-117.67,14.3a120.94,120.94,0,0,0-106.25,120Z" transform="translate(-440.57 -455)"/><path class="cls-27" d="M1633.09,1861.57l504.51-28a35.76,35.76,0,0,1,37.73,35.7V2269a35.75,35.75,0,0,1-35.75,35.75H1647.19a35.76,35.76,0,0,1-35.74-34.58l-12.12-371.73A35.77,35.77,0,0,1,1633.09,1861.57Z" transform="translate(-440.57 -455)"/><path class="cls-28" d="M1969.57,2190.26,1939,2102.47a29.38,29.38,0,0,1,6.68-30.31,82.88,82.88,0,0,0,23.86-62.25c-1.94-42.83-36.93-77.55-79.76-79.19a83.12,83.12,0,0,0-55.62,147.64,29.64,29.64,0,0,1,9.63,32.74l-27.53,79.16a29.61,29.61,0,0,0,28,39.35h97.31A29.62,29.62,0,0,0,1969.57,2190.26Z" transform="translate(-440.57 -455)"/><path class="cls-29" d="M2274.39,1596.78c.4-.15,214.73-375.49,243.69-410.81a22.44,22.44,0,0,1,20-8.06l59.82,7.13,70.28,152-117.08-68.19c11.59,80.13-138.82,199.2-190.41,242.65a11.85,11.85,0,0,0-.93,17.26l20.59,21.56c-33.81,34.27-72.82,56.27-116.86,66.45Z" transform="translate(-440.57 -455)"/><path class="cls-30" d="M2368.48,1538.72s13.14,4.25,17.59,16a13.39,13.39,0,0,1-5,15.44c-21.64,15.5-93,65.56-126,75.37a3.72,3.72,0,0,1-4.66-4.39c1.69-7.66,7.16-22.94,24.77-45.31l-1.58,3.19a4.58,4.58,0,0,0,6.34,6C2302,1592.58,2346.84,1565.35,2368.48,1538.72Z" transform="translate(-440.57 -455)"/><path class="cls-31" d="M2357.87,1688.9c.36-.23,32.52-77.7,32.88-77.93,29.48-179.51,101.41-333.25,122.63-373.7a22.47,22.47,0,0,1,18-12l60-5.12,99.6,134.67-128.46-43.08c27.56,76.12-95.64,223.17-137.36,276.16a11.85,11.85,0,0,0,2.57,17.09l24.53,17c-26.17,40.4-59.92,69.85-101,88.72Z" transform="translate(-440.57 -455)"/><path class="cls-32" d="M2438.26,1613s13.73,1.5,20.46,12.06a13.39,13.39,0,0,1-1.81,16.14c-18,19.56-77.84,83-108.11,99.3a3.73,3.73,0,0,1-5.46-3.35c.11-7.84,2.37-23.92,15.1-49.39l-.9,3.45a4.57,4.57,0,0,0,7.42,4.63C2384,1679.2,2422.47,1643.46,2438.26,1613Z" transform="translate(-440.57 -455)"/><path class="cls-33" d="M2872.39,1191.84s54.3,80.77,58.75,117.61-15,49.58-71.85,54.28c-169.13,14-252.51-36.71-252.51-36.71-11.57-73.77-19.8-92.54-116.44-132.65,0,0,122.23,9.71,146.82.16S2872.39,1191.84,2872.39,1191.84Z" transform="translate(-440.57 -455)"/><path class="cls-34" d="M2612.4,768.38s-28.71-29.61,12.81-53.41,73.52,6.23,110.69,47.61c30.44,33.87,87.29,36.2,128.32,47.92,51.67,14.76,89.07,54.3,95,109.71,4.84,45.33-34,77.14-72.66,91.15-118.33,42.89-146.31,57.24-183.43-13.53S2612.4,768.38,2612.4,768.38Z" transform="translate(-440.57 -455)"/><path class="cls-21" d="M2916.22,972.18c7.21-5,13.83-11.68,17.82-18.16,6-9.72,7.84-27.39,7.58-40.69-1.27-65-63.62-88.42-110.41-100.35-14-3.56-28.69-6.76-43.8-9.52a.71.71,0,0,0-.25,1.4c15.07,2.75,29.77,5.94,43.69,9.49,46.35,11.82,108.1,34.94,109.36,99,.25,13.1-1.55,30.47-7.38,39.93-5.37,8.72-15.65,17.79-25.57,22.55a.71.71,0,0,0-.33.95.7.7,0,0,0,.94.33A60.79,60.79,0,0,0,2916.22,972.18Z" transform="translate(-440.57 -455)"/><path class="cls-35" d="M2725.53,1181.14s-63.24-60.21-94.36-100.09a84.62,84.62,0,0,1-14.33-76.16c14.21-47.88,39.46-97.46,41.77-105.18,3.53-11.83,74.43-11.34,74.43-11.34s139.53,90.55,194.35,243.94l-61.57,19.17s-36.43-61.12-72.42-100c0,0,62.28,82.28,64.47,116Z" transform="translate(-440.57 -455)"/><path class="cls-36" d="M2605,1204.91l47.52-51.7,54.87,14.78s64,9.91,100.6,0l36.61-9.92,82.75-25.76,13,36.73a22.11,22.11,0,0,1-8.08,25.41c-7.16,5.08-15.55,10.67-20.89,13-10.9,4.77-251,1.51-251,1.51Z" transform="translate(-440.57 -455)"/><path class="cls-37" d="M2684.31,803.12,2732,891.73c-3.15,19.35-51.87,19.89-59.4,8.34a11.48,11.48,0,0,1-1.49-3.9L2642.57,837c-1.22-5.77,14.61-25.22,19.82-28l18.94-10.08C2688.62,795,2658.19,794.68,2684.31,803.12Z" transform="translate(-440.57 -455)"/><path class="cls-38" d="M2587.87,782.32s-5.38,29.94,18.15,68,47,36.34,58.87,22.77,26.16-36.19,19.67-74.15S2596,744.14,2587.87,782.32Z" transform="translate(-440.57 -455)"/><path class="cls-39" d="M2591.33,738.29s-19.72,29.66-15.69,42.29,47.09-10.89,57.44-17.42L2727.74,836s-50.7-97.75-76-113.92S2591.33,738.29,2591.33,738.29Z" transform="translate(-440.57 -455)"/><path class="cls-21" d="M2580.5,780.77a.71.71,0,0,0,.19-.75c-.17-.52-4.15-12.86,7.91-24a.71.71,0,0,0,0-1,.7.7,0,0,0-1,0c-12.76,11.76-8.33,25.34-8.29,25.48a.72.72,0,0,0,.9.44A.58.58,0,0,0,2580.5,780.77Z" transform="translate(-440.57 -455)"/><path class="cls-40" d="M2671.33,801.74s-19.74-25.61-1.77-30.93,17.29,25.1,16.12,36.41Z" transform="translate(-440.57 -455)"/><path class="cls-41" d="M2762.33,1225.37h-.51l-218.55-.24a9.78,9.78,0,1,1,0-19.56l218.55.23a9.79,9.79,0,0,1,.48,19.56Z" transform="translate(-440.57 -455)"/><path class="cls-42" d="M2346.81,1026.94h182a34.69,34.69,0,0,1,31.37,19.89l84.15,178.42H2418.15a21.09,21.09,0,0,1-19.61-13.33l-65.25-165.11A14.53,14.53,0,0,1,2346.81,1026.94Z" transform="translate(-440.57 -455)"/><path class="cls-43" d="M2475,1118.42c3.94,12.25,1,24.15-6.51,26.58s-16.85-5.54-20.79-17.8-1-24.15,6.5-26.58S2471.09,1106.16,2475,1118.42Z" transform="translate(-440.57 -455)"/><path class="cls-44" d="M1019.9,3183.54c-28.36,2.45-77.59,6.43-116.39,8.14-23.33,1-36.76-1.26-44.5-4.35,0,.87,0,1.69.08,2.46a8,8,0,0,0,7.62,7.58,1362.2,1362.2,0,0,0,152.41.15,5.71,5.71,0,0,0,4.65-8.58A47.3,47.3,0,0,0,1019.9,3183.54Z" transform="translate(-440.57 -455)"/><path class="cls-45" d="M903.51,3191.68c38.8-1.71,88-5.69,116.39-8.14-27.89-34.21-116.39-57.27-116.39-57.27h-25c-17.19,24.78-19.68,48.38-19.5,61.06C866.75,3190.42,880.18,3192.71,903.51,3191.68Z" transform="translate(-440.57 -455)"/><path class="cls-46" d="M874.3,3085.46l2.34,46.29a10.56,10.56,0,0,0,9,9.94,41,41,0,0,0,18.78-1.55,12.5,12.5,0,0,0,8.41-9.62l8.08-45.06Z" transform="translate(-440.57 -455)"/><path class="cls-47" d="M584.17,3236.94c-12.3-2.22-17.86-10.48-20.2-19.3,0,.08,0,.16,0,.23a22,22,0,0,0,10.77,23.56c10.14,5.55,21.22,6.49,29.82,6a27.58,27.58,0,0,0,22.37-13.33l.07-.12C617.69,3239.94,604.68,3240.64,584.17,3236.94Z" transform="translate(-440.57 -455)"/><path class="cls-48" d="M642.16,3099.72H621.55c-31.4-.83-51.12,84.77-57.58,117.92,2.34,8.82,7.9,17.08,20.2,19.3,20.51,3.7,33.52,3,42.79-2.93,17-28.85,25.37-71.1,29.41-95.76C661,3110.2,642.16,3099.72,642.16,3099.72Z" transform="translate(-440.57 -455)"/><path class="cls-49" d="M624.2,3056.76l-11.45,45.52a12.37,12.37,0,0,0,6.43,14c6.4,3.29,15.42,6.74,23.7,5.74a10.35,10.35,0,0,0,8.43-6.88l16.8-47.91Z" transform="translate(-440.57 -455)"/><path class="cls-50" d="M1026.88,2457.11s-102.3,639.45-100.61,643c0,0-28.25,12.84-59.06,1.64,0,0,9.25-341.83,30.93-472.9,0,0-174.59,305.53-230,457.77,0,0-28.91-3.45-52.85-19.2,0,0,188-549.94,238.13-623.19Z" transform="translate(-440.57 -455)"/><path class="cls-51" d="M902.22,2626.57a4.11,4.11,0,0,0,3.49-1.92l37.3-59.57,26.39-5.31a4.11,4.11,0,1,0-1.62-8.06l-28.13,5.66a4.1,4.1,0,0,0-2.68,1.85l-38.23,61.06a4.11,4.11,0,0,0,3.48,6.29Z" transform="translate(-440.57 -455)"/><path class="cls-52" d="M1496.32,1831s-69,15.22-111,34.61a38.36,38.36,0,0,0-18.78,18.87c-12.56,27.51-50.13,96.49-123,129.4,10.5,13.93,27.39,42.9,34.75,91.58,43.76-32.57,81.54-87,99.67-176.16,0,0,13.81,7.51,31-.86,9.11-4.42,19.62-10.69,27.51-15.62a36.11,36.11,0,0,0,16-21.48c3-11.78,1.23-22.14,1.23-33.25l35.48-11S1499.88,1843,1496.32,1831Z" transform="translate(-440.57 -455)"/><path class="cls-53" d="M1278.29,2105.42c-7.36-48.68-24.25-77.65-34.75-91.58-45.26,20.45-104.13,27-179.1,1a79.5,79.5,0,0,0-21.43-4.23c-39.91-2.34-171.43-6.61-280.26,29.35a84.59,84.59,0,0,0-51,46.44C682.3,2154,634.63,2307.82,767,2385.5a327.73,327.73,0,0,1,31.93-60.43c-21.31-35.94-27.62-85,10.19-149,27.58,74.45,40.51,183.08,43.21,231.16a103.34,103.34,0,0,1-8.09,46.24l-.68,1.59a5.47,5.47,0,0,0,3.84,7.47c74.49,16.74,152,12.19,175.11,10.28a9.54,9.54,0,0,0,8.51-7.29c36.22-152.63,36.31-256.74,27.44-322.55C1092.29,2150.59,1195.9,2166.74,1278.29,2105.42Z" transform="translate(-440.57 -455)"/><path class="cls-54" d="M1058.55,2148.2l.55,0a4.11,4.11,0,0,0,3.53-4.62c-8.73-66-26.3-94.29-27.05-95.46a4.11,4.11,0,0,0-6.94,4.4c.17.28,17.38,28.19,25.85,92.14A4.1,4.1,0,0,0,1058.55,2148.2Z" transform="translate(-440.57 -455)"/><path class="cls-55" d="M874.73,1921.71s-7.53,79.68-14.17,103.25a8.06,8.06,0,0,0,3.8,9.2c11.26,6.43,38.26,16.93,75.21-1.18a16.76,16.76,0,0,0,9.3-15.77l-3.25-77Z" transform="translate(-440.57 -455)"/><path class="cls-56" d="M1396.37,1922.12a4.11,4.11,0,0,0,3.19-1.51c9.92-12.2,26.8-31.56,32.68-34.87,5.17-2.93,8.12-6.21,9-10,.76-3.26,0-6.68-2.39-10.17a4.1,4.1,0,0,0-4.22-1.73l-30.13,6a4.07,4.07,0,0,0-1.87.92l-16,13.75a4.11,4.11,0,1,0,5.35,6.23l15.21-13,26-5.21a2.48,2.48,0,0,1,0,1.34c-.33,1.42-2.13,3.12-5.06,4.78-9.11,5.14-32.39,33.61-35,36.84a4.11,4.11,0,0,0,3.19,6.7Z" transform="translate(-440.57 -455)"/><path class="cls-57" d="M881.85,2439.91l108.76-2.37s-94.84-26.81-100.73-19.5c0,0-58.78-38.63-91-93A327.73,327.73,0,0,0,767,2385.5C795.83,2402.45,833.76,2431.91,881.85,2439.91Z" transform="translate(-440.57 -455)"/><path class="cls-58" d="M878.78,2421.08s-2.24,43.33,54.64,37c30.92-3.42,80.83-32.24,80.83-32.24S884.16,2425.53,878.78,2421.08Z" transform="translate(-440.57 -455)"/><path class="cls-59" d="M901.06,2432.7l.62,0,270.43-.29a12,12,0,1,0,0-24l-270.43.3a12,12,0,0,0-.59,23.93Z" transform="translate(-440.57 -455)"/><path class="cls-60" d="M1415.21,2189.77H1190a43,43,0,0,0-38.82,24.35l-104.11,218.44h279.88a26.09,26.09,0,0,0,24.26-16.32l80.74-202.14A17.82,17.82,0,0,0,1415.21,2189.77Z" transform="translate(-440.57 -455)"/><path class="cls-61" d="M1256.54,2301.77c-4.88,15-1.27,29.57,8.06,32.54s20.84-6.78,25.72-21.79,1.28-29.57-8-32.54S1261.42,2286.76,1256.54,2301.77Z" transform="translate(-440.57 -455)"/><path class="cls-62" d="M963.77,1811c1,1.63,27.82,125.59,27.82,125.59l-71.1,13.8-42.86-113.71S946.78,1783.8,963.77,1811Z" transform="translate(-440.57 -455)"/><path class="cls-63" d="M903.06,1855.08l17.87,61.62a9.09,9.09,0,0,0,1,2.23c2.66,4.28,12.89,18.32,26.62,7,12.46-10.29,24-19.5,34.21-20.7a9,9,0,0,1,9.82,7c2.43,11.26,7.44,36.75,8.42,59.55a9,9,0,0,1-7.81,9.21c-13.84,1.81-43.13,4.83-67.26,1.74a9,9,0,0,1-7.25-5.63c-5.84-15-23.77-60.41-30.72-72.3-6.53-11.16-24.05-11.86-31.43-11.63a8.77,8.77,0,0,1-6.47-2.53c-6.1-6-17.51-21.07.67-37.3a9,9,0,0,0,.53-12.91c-7-7.37-14.18-20.13-1-34.7,13.39-14.81,29.76-11.4,39.66-7.13a9,9,0,0,0,11-3.36c1.39-2.06,3.69-3.55,7.5-3a8.82,8.82,0,0,0,9.92-8.5c.39-10,4.67-22.32,22.23-26.7,31.16-7.78,48.56,22.88,49.19,45.06s-33.63,28.7-53.41,26.07c-15-2-27.11,12.34-32,19.32A8.9,8.9,0,0,0,903.06,1855.08Z" transform="translate(-440.57 -455)"/><path class="cls-64" d="M894.68,1927.15s-2.76-38.6-18.59-41.38-32.09,9.42-17.47,31.83C876.8,1945.48,894.68,1927.15,894.68,1927.15Z" transform="translate(-440.57 -455)"/></g></g></svg>