<svg id="Layer_1" data-name="Layer 1" xmlns="http://www.w3.org/2000/svg" xmlns:xlink="http://www.w3.org/1999/xlink" viewBox="0 0 5.79 2.55"><defs><style>.cls-1{fill:url(#linear-gradient);}.cls-2{fill:#fff;}.cls-3{fill:url(#linear-gradient-2);}.cls-4{fill:url(#linear-gradient-3);}.cls-5{fill:url(#linear-gradient-4);}.cls-6{fill:url(#linear-gradient-5);}.cls-7{font-size:0.68px;fill:#bc1f53;font-family:Dubai-Bold, Dubai;font-weight:700;}.cls-8{letter-spacing:-0.01em;}.cls-9{letter-spacing:-0.01em;}</style><linearGradient id="linear-gradient" x1="0.67" y1="1.44" x2="1.64" y2="3.82" gradientUnits="userSpaceOnUse"><stop offset="0" stop-color="#cb266e"/><stop offset="1" stop-color="#4c286e"/></linearGradient><linearGradient id="linear-gradient-2" x1="0.78" y1="1.73" x2="1.57" y2="3.66" gradientUnits="userSpaceOnUse"><stop offset="0" stop-color="#66cdf3"/><stop offset="1" stop-color="#4a5aa8"/></linearGradient><linearGradient id="linear-gradient-3" x1="1.15" y1="2.35" x2="1.24" y2="3.3" gradientUnits="userSpaceOnUse"><stop offset="0" stop-color="#f9ee4a"/><stop offset="1" stop-color="#da3d66"/></linearGradient><linearGradient id="linear-gradient-4" x1="1.12" y1="2.82" x2="1.36" y2="3.94" xlink:href="#linear-gradient-3"/><linearGradient id="linear-gradient-5" x1="1.32" y1="3.05" x2="1.07" y2="3.38" xlink:href="#linear-gradient"/></defs><path class="cls-1" d="M2.29,2.37a.19.19,0,0,0-.12-.17l-.9-.43a.21.21,0,0,0-.19,0l-.9.43a.21.21,0,0,0-.12.17,1.83,1.83,0,0,0,1,1.91.25.25,0,0,0,.17,0A1.81,1.81,0,0,0,2.29,2.37Z" transform="translate(-0.06 -1.75)"/><path class="cls-2" d="M.9,2s0,0,0,0,0,0,0,0l.22-.11h0s0,0,0,0L.91,2Z" transform="translate(-0.06 -1.75)"/><path class="cls-2" d="M.13,2.66a0,0,0,0,1,0,0V2.38A.19.19,0,0,1,.2,2.24L.81,2s0,0,0,0,0,0,0,0l-.61.29a.11.11,0,0,0-.06.1,2.35,2.35,0,0,0,0,.26,0,0,0,0,1,0,0Z" transform="translate(-0.06 -1.75)"/><path class="cls-3" d="M2.07,2.43a.05.05,0,0,0,0-.05L1.2,2a0,0,0,0,0-.05,0l-.84.4a.05.05,0,0,0,0,.05A1.79,1.79,0,0,0,.61,3.64a1.51,1.51,0,0,0,.54.43H1.2a1.51,1.51,0,0,0,.54-.43A1.79,1.79,0,0,0,2.07,2.43Z" transform="translate(-0.06 -1.75)"/><path class="cls-4" d="M.93,3H.84V2.61a.25.25,0,0,1,.23-.25l.17,0a.31.31,0,0,1,.21.07.28.28,0,0,1,.09.19v.3H1.45v-.3a.16.16,0,0,0-.06-.13.18.18,0,0,0-.14,0l-.17,0a.17.17,0,0,0-.15.17Z" transform="translate(-0.06 -1.75)"/><path class="cls-5" d="M.82,2.87l.73,0a.06.06,0,0,1,.06.06v.58a0,0,0,0,1-.05,0H.84a0,0,0,0,1,0,0l0-.54A.06.06,0,0,1,.82,2.87Z" transform="translate(-0.06 -1.75)"/><path class="cls-6" d="M1.31,3.35l-.05-.12a.07.07,0,0,1,0,0,.1.1,0,0,0,0-.09A.11.11,0,0,0,1.19,3a.11.11,0,0,0-.12.12.11.11,0,0,0,0,.09s0,0,0,.05l0,.11a0,0,0,0,0,0,.06h.14A0,0,0,0,0,1.31,3.35Z" transform="translate(-0.06 -1.75)"/><text class="cls-7" transform="translate(2.54 0.96)">Ge<tspan class="cls-8" x="0.78" y="0">s</tspan><tspan x="1.07" y="0">tion de </tspan><tspan x="0" y="0.82">la Sécuri</tspan><tspan class="cls-9" x="2.5" y="0.82">t</tspan><tspan x="2.74" y="0.82">é</tspan></text></svg>