<svg id="Layer_1" data-name="Layer 1" xmlns="http://www.w3.org/2000/svg" xmlns:xlink="http://www.w3.org/1999/xlink" viewBox="0 0 48.56 21.38"><defs><style>.cls-1{fill:url(#linear-gradient);}.cls-2{fill:#fff;}.cls-3{fill:url(#linear-gradient-2);}.cls-4{fill:url(#linear-gradient-3);}.cls-5{fill:url(#linear-gradient-4);}.cls-6{fill:url(#linear-gradient-5);}.cls-7{font-size:5.72px;fill:#bc1f53;font-family:Dubai-Bold, Dubai;font-weight:700;}.cls-8{letter-spacing:-0.01em;}.cls-9{letter-spacing:-0.01em;}</style><linearGradient id="linear-gradient" x1="6.26" y1="12.9" x2="14.39" y2="32.84" gradientUnits="userSpaceOnUse"><stop offset="0" stop-color="#cb266e"/><stop offset="1" stop-color="#4c286e"/></linearGradient><linearGradient id="linear-gradient-2" x1="7.2" y1="15.3" x2="13.82" y2="31.55" gradientUnits="userSpaceOnUse"><stop offset="0" stop-color="#66cdf3"/><stop offset="1" stop-color="#4a5aa8"/></linearGradient><linearGradient id="linear-gradient-3" x1="10.28" y1="20.53" x2="11.04" y2="28.53" gradientUnits="userSpaceOnUse"><stop offset="0" stop-color="#f9ee4a"/><stop offset="1" stop-color="#da3d66"/></linearGradient><linearGradient id="linear-gradient-4" x1="10.06" y1="24.48" x2="12.02" y2="33.87" xlink:href="#linear-gradient-3"/><linearGradient id="linear-gradient-5" x1="11.72" y1="26.37" x2="9.59" y2="29.16" xlink:href="#linear-gradient"/></defs><path class="cls-1" d="M19.85,20.74a1.78,1.78,0,0,0-1-1.49l-7.56-3.6a1.78,1.78,0,0,0-1.53,0l-7.57,3.6a1.79,1.79,0,0,0-1,1.49c-.71,11,6.32,15,8.63,16a1.78,1.78,0,0,0,1.43,0C13.53,35.71,20.56,31.71,19.85,20.74Z" transform="translate(-1.11 -15.48)"/><path class="cls-2" d="M8.21,17.24a.19.19,0,0,1-.16-.1.18.18,0,0,1,.09-.24l1.78-.85a.19.19,0,0,1,.25.08.2.2,0,0,1-.09.25l-1.79.84A.11.11,0,0,1,8.21,17.24Z" transform="translate(-1.11 -15.48)"/><path class="cls-2" d="M1.74,23.16A.19.19,0,0,1,1.55,23c0-.72,0-1.46,0-2.22a1.35,1.35,0,0,1,.77-1.13l5.09-2.42a.18.18,0,1,1,.15.33L2.52,20a1,1,0,0,0-.57.82c0,.75-.06,1.48,0,2.19a.18.18,0,0,1-.18.18Z" transform="translate(-1.11 -15.48)"/><path class="cls-3" d="M18,21.17a.47.47,0,0,0-.25-.38l-7.08-3.36a.42.42,0,0,0-.38,0L3.24,20.79a.45.45,0,0,0-.25.38A14.7,14.7,0,0,0,5.8,31.32a12.4,12.4,0,0,0,4.52,3.6.4.4,0,0,0,.37,0,12.4,12.4,0,0,0,4.52-3.6A14.75,14.75,0,0,0,18,21.17Z" transform="translate(-1.11 -15.48)"/><path class="cls-4" d="M8.41,25.57h-.7V22.76a2.18,2.18,0,0,1,1.92-2.17l1.44-.18a2.2,2.2,0,0,1,2.45,2.17V25h-.71V22.58a1.48,1.48,0,0,0-1.66-1.47l-1.44.18a1.48,1.48,0,0,0-1.3,1.47Z" transform="translate(-1.11 -15.48)"/><path class="cls-5" d="M7.5,24.94l6.18-.35a.44.44,0,0,1,.46.44v4.89a.44.44,0,0,1-.44.44h-6a.44.44,0,0,1-.44-.42l-.14-4.55A.43.43,0,0,1,7.5,24.94Z" transform="translate(-1.11 -15.48)"/><path class="cls-6" d="M11.62,29l-.37-1.07a.36.36,0,0,1,.08-.38,1,1,0,1,0-1.37.08.37.37,0,0,1,.12.4l-.34,1a.36.36,0,0,0,.35.48h1.19A.36.36,0,0,0,11.62,29Z" transform="translate(-1.11 -15.48)"/><text class="cls-7" transform="translate(21.32 8.02)">Ge<tspan class="cls-8" x="6.52" y="0">s</tspan><tspan x="8.97" y="0">tion de </tspan><tspan x="0" y="6.87">la Sécuri</tspan><tspan class="cls-9" x="20.93" y="6.87">t</tspan><tspan x="22.99" y="6.87">é</tspan></text></svg>