<svg id="Layer_1" data-name="Layer 1" xmlns="http://www.w3.org/2000/svg" xmlns:xlink="http://www.w3.org/1999/xlink" viewBox="0 0 110.64 48.72"><defs><style>.cls-1{fill:url(#linear-gradient);}.cls-2{fill:#fff;}.cls-3{fill:url(#linear-gradient-2);}.cls-4{fill:url(#linear-gradient-3);}.cls-5{fill:url(#linear-gradient-4);}.cls-6{fill:url(#linear-gradient-5);}.cls-7{font-size:13.04px;fill:#bc1f53;font-family:Dubai-Bold, Dubai;font-weight:700;}.cls-8{letter-spacing:-0.01em;}.cls-9{letter-spacing:-0.01em;}</style><linearGradient id="linear-gradient" x1="14.42" y1="87.83" x2="32.94" y2="133.27" gradientUnits="userSpaceOnUse"><stop offset="0" stop-color="#cb266e"/><stop offset="1" stop-color="#4c286e"/></linearGradient><linearGradient id="linear-gradient-2" x1="16.56" y1="93.31" x2="31.64" y2="130.32" gradientUnits="userSpaceOnUse"><stop offset="0" stop-color="#66cdf3"/><stop offset="1" stop-color="#4a5aa8"/></linearGradient><linearGradient id="linear-gradient-3" x1="23.57" y1="105.21" x2="25.3" y2="123.45" gradientUnits="userSpaceOnUse"><stop offset="0" stop-color="#f9ee4a"/><stop offset="1" stop-color="#da3d66"/></linearGradient><linearGradient id="linear-gradient-4" x1="23.07" y1="114.21" x2="27.54" y2="135.62" xlink:href="#linear-gradient-3"/><linearGradient id="linear-gradient-5" x1="26.86" y1="118.54" x2="22.01" y2="124.88" xlink:href="#linear-gradient"/></defs><path class="cls-1" d="M45.37,105.7a4,4,0,0,0-2.31-3.4L25.82,94.11a4.08,4.08,0,0,0-3.48,0L5.1,102.3a4,4,0,0,0-2.31,3.4c-1.62,25,14.4,34.1,19.66,36.4a4.1,4.1,0,0,0,3.26,0C31,139.8,47,130.69,45.37,105.7Z" transform="translate(-2.67 -93.72)"/><path class="cls-2" d="M18.87,97.73a.42.42,0,0,1-.38-.24.41.41,0,0,1,.2-.55L22.76,95a.41.41,0,0,1,.55.2.42.42,0,0,1-.19.55L19,97.69A.33.33,0,0,1,18.87,97.73Z" transform="translate(-2.67 -93.72)"/><path class="cls-2" d="M4.1,111.22a.42.42,0,0,1-.41-.4c0-1.63,0-3.33.09-5a3,3,0,0,1,1.75-2.57l11.59-5.51a.41.41,0,0,1,.55.19.42.42,0,0,1-.2.56l-11.59,5.5a2.23,2.23,0,0,0-1.28,1.88,48.89,48.89,0,0,0-.08,5,.41.41,0,0,1-.4.43Z" transform="translate(-2.67 -93.72)"/><path class="cls-3" d="M41.2,106.68a1,1,0,0,0-.57-.87L24.51,98.16a1,1,0,0,0-.87,0L7.53,105.81a1,1,0,0,0-.58.87c-.47,9.32,1.68,17.1,6.41,23.13A28.59,28.59,0,0,0,23.65,138a1,1,0,0,0,.86,0,28.59,28.59,0,0,0,10.29-8.2C39.53,123.78,41.68,116,41.2,106.68Z" transform="translate(-2.67 -93.72)"/><path class="cls-4" d="M19.32,116.69H17.71v-6.4a5,5,0,0,1,4.38-4.94l3.28-.4A5,5,0,0,1,31,109.89v5.59H29.34v-5.59a3.36,3.36,0,0,0-3.78-3.34l-3.28.4a3.36,3.36,0,0,0-3,3.34Z" transform="translate(-2.67 -93.72)"/><path class="cls-5" d="M17.23,115.26l14.08-.78a1,1,0,0,1,1.05,1v11.15a1,1,0,0,1-1,1H17.63a1,1,0,0,1-1-1l-.34-10.38A1,1,0,0,1,17.23,115.26Z" transform="translate(-2.67 -93.72)"/><path class="cls-6" d="M26.62,124.43,25.77,122a.83.83,0,0,1,.19-.85,2.32,2.32,0,0,0-1.56-3.94A2.31,2.31,0,0,0,22,119.5a2.28,2.28,0,0,0,.86,1.8.83.83,0,0,1,.26.92l-.76,2.21a.82.82,0,0,0,.78,1.09h2.71A.82.82,0,0,0,26.62,124.43Z" transform="translate(-2.67 -93.72)"/><text class="cls-7" transform="translate(48.56 18.26)">Ge<tspan class="cls-8" x="14.86" y="0">s</tspan><tspan x="20.43" y="0">tion de </tspan><tspan x="0" y="15.65">la Sécuri</tspan><tspan class="cls-9" x="47.69" y="15.65">t</tspan><tspan x="52.39" y="15.65">é</tspan></text></svg>