<svg id="Layer_1" data-name="Layer 1" xmlns="http://www.w3.org/2000/svg" xmlns:xlink="http://www.w3.org/1999/xlink" viewBox="0 0 391.52 172.4"><defs><style>.cls-1{fill:url(#linear-gradient);}.cls-2{fill:#fff;}.cls-3{fill:url(#linear-gradient-2);}.cls-4{fill:url(#linear-gradient-3);}.cls-5{fill:url(#linear-gradient-4);}.cls-6{fill:url(#linear-gradient-5);}.cls-7{font-size:46.14px;fill:#bc1f53;font-family:Dubai-Bold, Dubai;font-weight:700;}.cls-8{letter-spacing:-0.01em;}.cls-9{letter-spacing:0em;}.cls-10{letter-spacing:-0.01em;}</style><linearGradient id="linear-gradient" x1="45.64" y1="215.23" x2="111.15" y2="376.04" gradientUnits="userSpaceOnUse"><stop offset="0" stop-color="#cb266e"/><stop offset="1" stop-color="#4c286e"/></linearGradient><linearGradient id="linear-gradient-2" x1="53.22" y1="234.6" x2="106.58" y2="365.58" gradientUnits="userSpaceOnUse"><stop offset="0" stop-color="#66cdf3"/><stop offset="1" stop-color="#4a5aa8"/></linearGradient><linearGradient id="linear-gradient-3" x1="78.02" y1="276.74" x2="84.15" y2="341.28" gradientUnits="userSpaceOnUse"><stop offset="0" stop-color="#f9ee4a"/><stop offset="1" stop-color="#da3d66"/></linearGradient><linearGradient id="linear-gradient-4" x1="76.24" y1="308.58" x2="92.07" y2="384.33" xlink:href="#linear-gradient-3"/><linearGradient id="linear-gradient-5" x1="89.65" y1="323.89" x2="72.49" y2="346.35" xlink:href="#linear-gradient"/></defs><path class="cls-1" d="M155.16,278.47a14.34,14.34,0,0,0-8.18-12l-61-29a14.43,14.43,0,0,0-12.35,0l-61,29a14.34,14.34,0,0,0-8.18,12C-1.25,366.9,55.45,399.12,74,407.26a14.38,14.38,0,0,0,11.57,0C104.18,399.12,160.88,366.9,155.16,278.47Z" transform="translate(-4.06 -236.07)"/><path class="cls-2" d="M61.37,250.26a1.46,1.46,0,0,1-.63-2.78l14.41-6.84a1.46,1.46,0,1,1,1.25,2.64L62,250.12A1.37,1.37,0,0,1,61.37,250.26Z" transform="translate(-4.06 -236.07)"/><path class="cls-2" d="M9.13,298a1.46,1.46,0,0,1-1.46-1.41c-.19-5.77-.09-11.79.3-17.88a10.88,10.88,0,0,1,6.19-9.1l41-19.48a1.46,1.46,0,1,1,1.25,2.64l-41,19.48a8,8,0,0,0-4.52,6.65c-.39,6-.49,11.92-.3,17.59A1.45,1.45,0,0,1,9.18,298Z" transform="translate(-4.06 -236.07)"/><path class="cls-3" d="M140.41,281.92a3.59,3.59,0,0,0-2-3.06l-57-27.08a3.59,3.59,0,0,0-3.07,0l-57,27.08a3.59,3.59,0,0,0-2,3.06c-1.69,33,5.93,60.51,22.66,81.85a101,101,0,0,0,36.42,29,3.57,3.57,0,0,0,3,0,101,101,0,0,0,36.42-29C134.48,342.43,142.1,314.91,140.41,281.92Z" transform="translate(-4.06 -236.07)"/><path class="cls-4" d="M63,317.37H57.27V294.72a17.63,17.63,0,0,1,15.49-17.48l11.62-1.42a17.62,17.62,0,0,1,19.74,17.49v19.77H98.43V293.31a11.91,11.91,0,0,0-13.36-11.84l-11.62,1.41A11.94,11.94,0,0,0,63,294.72Z" transform="translate(-4.06 -236.07)"/><path class="cls-5" d="M55.59,312.28l49.82-2.76a3.53,3.53,0,0,1,3.72,3.53v39.46A3.53,3.53,0,0,1,105.6,356H57a3.53,3.53,0,0,1-3.53-3.42l-1.2-36.7A3.53,3.53,0,0,1,55.59,312.28Z" transform="translate(-4.06 -236.07)"/><path class="cls-6" d="M88.82,344.73l-3-8.66a2.93,2.93,0,0,1,.66-3,8.15,8.15,0,0,0,2.36-6.14,8.21,8.21,0,1,0-13.37,6.76,2.92,2.92,0,0,1,1,3.23l-2.72,7.81a2.93,2.93,0,0,0,2.77,3.89h9.6A2.93,2.93,0,0,0,88.82,344.73Z" transform="translate(-4.06 -236.07)"/><text class="cls-7" transform="translate(171.85 64.63)">Ge<tspan class="cls-8" x="52.6" y="0">s</tspan><tspan class="cls-9" x="72.3" y="0">tion de </tspan><tspan x="0" y="55.37">la Sécuri</tspan><tspan class="cls-10" x="168.78" y="55.37">t</tspan><tspan x="185.39" y="55.37">é</tspan></text></svg>