<svg id="Layer_1" data-name="Layer 1" xmlns="http://www.w3.org/2000/svg" xmlns:xlink="http://www.w3.org/1999/xlink" viewBox="0 0 192.75 84.88"><defs><style>.cls-1{fill:url(#linear-gradient);}.cls-2{fill:#fff;}.cls-3{fill:url(#linear-gradient-2);}.cls-4{fill:url(#linear-gradient-3);}.cls-5{fill:url(#linear-gradient-4);}.cls-6{fill:url(#linear-gradient-5);}.cls-7{font-size:22.72px;fill:#bc1f53;font-family:Dubai-Bold, Dubai;font-weight:700;}.cls-8{letter-spacing:-0.01em;}</style><linearGradient id="linear-gradient" x1="23.14" y1="47.3" x2="55.4" y2="126.47" gradientUnits="userSpaceOnUse"><stop offset="0" stop-color="#cb266e"/><stop offset="1" stop-color="#4c286e"/></linearGradient><linearGradient id="linear-gradient-2" x1="26.87" y1="56.84" x2="53.14" y2="121.32" gradientUnits="userSpaceOnUse"><stop offset="0" stop-color="#66cdf3"/><stop offset="1" stop-color="#4a5aa8"/></linearGradient><linearGradient id="linear-gradient-3" x1="39.08" y1="77.58" x2="42.1" y2="109.36" gradientUnits="userSpaceOnUse"><stop offset="0" stop-color="#f9ee4a"/><stop offset="1" stop-color="#da3d66"/></linearGradient><linearGradient id="linear-gradient-4" x1="38.2" y1="93.26" x2="46" y2="130.55" xlink:href="#linear-gradient-3"/><linearGradient id="linear-gradient-5" x1="44.81" y1="100.8" x2="36.36" y2="111.86" xlink:href="#linear-gradient"/></defs><path class="cls-1" d="M77.06,78.44a7.06,7.06,0,0,0-4-5.93L43,58.25a7,7,0,0,0-6.08,0L6.9,72.51a7.08,7.08,0,0,0-4,5.93C.06,122,28,137.84,37.12,141.84a7,7,0,0,0,5.69,0C52,137.84,79.88,122,77.06,78.44Z" transform="translate(-2.67 -57.56)"/><path class="cls-2" d="M30.88,64.55a.72.72,0,0,1-.31-1.37l7.1-3.37a.72.72,0,0,1,.62,1.3l-7.1,3.37A.67.67,0,0,1,30.88,64.55Z" transform="translate(-2.67 -57.56)"/><path class="cls-2" d="M5.17,88.05a.72.72,0,0,1-.72-.7,86.91,86.91,0,0,1,.15-8.8,5.34,5.34,0,0,1,3-4.48l20.2-9.59a.71.71,0,0,1,1,.34.72.72,0,0,1-.34,1L8.26,75.37A3.93,3.93,0,0,0,6,78.64c-.19,3-.24,5.87-.14,8.66a.73.73,0,0,1-.7.75Z" transform="translate(-2.67 -57.56)"/><path class="cls-3" d="M69.8,80.14a1.76,1.76,0,0,0-1-1.51L40.72,65.3a1.74,1.74,0,0,0-1.51,0L11.14,78.63a1.78,1.78,0,0,0-1,1.51c-.83,16.24,2.92,29.79,11.16,40.29a49.78,49.78,0,0,0,17.93,14.3,1.76,1.76,0,0,0,1.49,0,49.7,49.7,0,0,0,17.93-14.3C66.88,109.93,70.63,96.38,69.8,80.14Z" transform="translate(-2.67 -57.56)"/><path class="cls-4" d="M31.67,97.58h-2.8V86.44a8.68,8.68,0,0,1,7.62-8.61l5.72-.7a8.67,8.67,0,0,1,9.72,8.61v9.73h-2.8V85.74a5.86,5.86,0,0,0-6.58-5.83l-5.72.7a5.87,5.87,0,0,0-5.16,5.83Z" transform="translate(-2.67 -57.56)"/><path class="cls-5" d="M28,95.08l24.53-1.36a1.74,1.74,0,0,1,1.83,1.74v19.43a1.73,1.73,0,0,1-1.74,1.73H28.73A1.74,1.74,0,0,1,27,114.94L26.4,96.87A1.74,1.74,0,0,1,28,95.08Z" transform="translate(-2.67 -57.56)"/><path class="cls-6" d="M44.4,111.06l-1.49-4.27a1.44,1.44,0,0,1,.33-1.47,4,4,0,1,0-5.42.3,1.44,1.44,0,0,1,.47,1.59L37,111.06A1.44,1.44,0,0,0,38.31,113H43A1.44,1.44,0,0,0,44.4,111.06Z" transform="translate(-2.67 -57.56)"/><text class="cls-7" transform="translate(84.61 31.82)">Ge<tspan class="cls-8" x="25.9" y="0">s</tspan><tspan x="35.6" y="0">tion de </tspan><tspan x="0" y="27.26">la Sécuri</tspan><tspan class="cls-8" x="83.09" y="27.26">t</tspan><tspan x="91.27" y="27.26">é</tspan></text></svg>